<svg id="Layer_1" data-name="Layer 1" xmlns="http://www.w3.org/2000/svg" viewBox="0 0 261.9 258.69"><defs><style>.cls-1{fill:#cd6152;}.cls-2{fill:#9d2e22;}.cls-3{fill:#ae3729;}.cls-4{fill:#164557;}.cls-21,.cls-5{fill:#c5443b;}.cls-6{fill:#b5a688;}.cls-7{fill:#b4352b;}.cls-8{fill:#1c3245;}.cls-9{fill:#ccbb9a;}.cls-10{fill:#decca5;}.cls-11{fill:#b9bb99;}.cls-12{fill:#82271c;}.cls-13{fill:#fff;}.cls-14{fill:#d2d3d4;}.cls-15{fill:#ad9f82;}.cls-16{fill:#e6e7e7;}.cls-17{fill:#b63b32;}.cls-18{fill:#254158;}.cls-19,.cls-20,.cls-23,.cls-43,.cls-44,.cls-45,.cls-47,.cls-49{fill:none;}.cls-19,.cls-21,.cls-23{stroke:#231f20;}.cls-19,.cls-20,.cls-43,.cls-46,.cls-47,.cls-49{stroke-linecap:round;}.cls-19,.cls-20,.cls-23,.cls-43,.cls-45,.cls-46,.cls-47,.cls-49{stroke-linejoin:round;}.cls-19,.cls-20,.cls-21,.cls-23,.cls-44,.cls-45,.cls-46{stroke-width:0.53px;}.cls-20,.cls-43,.cls-44,.cls-45,.cls-46,.cls-47,.cls-49{stroke:#010101;}.cls-21,.cls-44{stroke-miterlimit:10;}.cls-22{fill:#1a576f;}.cls-24{fill:#fee4cd;}.cls-25{fill:#ac562e;}.cls-26{fill:#f2f2f2;}.cls-27{fill:#e37c4b;}.cls-28{fill:#ffce86;}.cls-29{fill:#f5d2b3;}.cls-30{fill:#954a28;}.cls-31{fill:#e8875a;}.cls-32{fill:#ca6d41;}.cls-33{fill:#da7748;}.cls-34{fill:#ffefe0;}.cls-35{fill:#f6bc64;}.cls-36{fill:#edcbae;}.cls-37{fill:#f89f75;}.cls-38{fill:#ffd9a2;}.cls-39{fill:#d66c3a;}.cls-40{fill:#382415;}.cls-41{fill:#dabb9e;}.cls-42{fill:#c56434;}.cls-43{stroke-width:0.13px;}.cls-46{fill:#010101;}.cls-47{stroke-width:0.26px;}.cls-48{fill:#f79668;}</style></defs><title>01</title><g id="_4" data-name="4"><path class="cls-1" d="M45.07,136.22C74.18,102.79,128,76,186.72,82.18c63,6.63,102.07,80.82,97.39,141.6-4.73,61.55-33,106-74.71,111.41L57.13,319.25C24.63,286.84,4.86,182.39,45.07,136.22Z" transform="translate(-22.59 -81.29)"/><path class="cls-2" d="M160.6,136.36c.07,0,0,3.74,0,3.74h-1.19v-3.74Z" transform="translate(-22.59 -81.29)"/><path class="cls-3" d="M150.67,164.48v2.17h-.2a8.65,8.65,0,0,1-2.45-.36v-1.74A9.07,9.07,0,0,0,150.67,164.48Z" transform="translate(-22.59 -81.29)"/><rect class="cls-2" x="95.26" y="209.17" width="65.7" height="8.74"/><path class="cls-4" d="M181.17,159.73h-2.83a13.78,13.78,0,0,0,.32-3.07H161.2v-.06h19.61v.06A12.62,12.62,0,0,0,181.17,159.73Z" transform="translate(-22.59 -81.29)"/><path class="cls-5" d="M153.3,159.73h3a6.85,6.85,0,0,1-3,3.8Z" transform="translate(-22.59 -81.29)"/><polygon class="cls-6" points="102.44 28.2 102.44 37.6 87.13 37.6 87.13 28.2 87.13 28.07 102.44 28.07 102.44 28.2"/><path class="cls-5" d="M203,156.66l-.27,7a10.48,10.48,0,0,1-2.34-7Z" transform="translate(-22.59 -81.29)"/><polygon class="cls-7" points="148.07 72.58 150.06 75.3 138.61 75.3 118.99 75.3 99.37 75.3 79.75 75.3 75.37 75.3 75.26 72.58 148.07 72.58"/><polygon class="cls-5" points="70.56 63.82 141.68 63.82 141.87 64.08 74.94 64.08 75.04 66.79 67.21 66.79 70.56 63.82"/><path class="cls-3" d="M117.59,156.66h2.21a13.78,13.78,0,0,1-.32,3.07h-2.42a11.12,11.12,0,0,0,.53-2.87Z" transform="translate(-22.59 -81.29)"/><rect class="cls-2" x="90.49" y="227.71" width="75.23" height="10.24"/><path class="cls-8" d="M233.75,319.25H239s-3.3,14-4.53,16.35L232.26,330Z" transform="translate(-22.59 -81.29)"/><polygon class="cls-5" points="192.85 70.56 195.12 72.58 180.56 72.58 180.67 69.64 191.82 69.64 192.85 70.56"/><rect class="cls-2" x="90.49" y="226.12" width="75.23" height="1.59"/><path class="cls-9" d="M248.3,271.78a1.5,1.5,0,0,1,1.48,1.69L244,319.26H239l3.91-47.39v-.08Z" transform="translate(-22.59 -81.29)"/><polygon class="cls-6" points="76.84 114.12 77.26 125.24 77.25 125.24 70.1 125.24 70.1 124.45 70.1 114.12 76.84 114.12"/><path class="cls-3" d="M117.06,159.73h2.42a8.66,8.66,0,0,1-3.8,5.68V162.2A7.43,7.43,0,0,0,117.06,159.73Z" transform="translate(-22.59 -81.29)"/><polygon class="cls-10" points="190.57 157.81 190.57 168.66 177.07 168.66 176.91 168.66 177.32 157.81 177.33 157.81 183.95 157.81 190.57 157.81"/><polygon class="cls-11" points="196.53 157.81 196.05 168.66 190.57 168.66 190.57 157.81 196.4 157.81 196.53 157.81"/><polygon class="cls-2" points="120.94 58.52 120.94 58.8 105.58 58.8 105.58 58.52 105.58 55.06 120.94 55.06 120.94 58.52"/><polygon class="cls-2" points="105.58 58.52 105.58 58.8 87.84 58.8 87.84 58.52 87.84 55.06 105.58 55.06 105.58 58.52"/><polygon class="cls-2" points="136.82 58.52 136.82 58.8 120.94 58.8 120.94 58.52 120.94 55.06 136.82 55.06 136.82 58.52"/><polygon class="cls-12" points="170.98 58.52 170.98 58.8 153.77 58.8 153.77 58.52 153.77 55.06 170.98 55.06 170.98 58.52"/><polygon class="cls-9" points="199.47 92.15 198.99 103 192.96 103 187.13 103 187.13 102.74 187.13 92.41 187.13 92.15 195.6 92.15 199.31 92.15 199.47 92.15"/><polygon class="cls-9" points="208.94 19.86 208.28 28.07 202.33 28.07 187.94 28.07 171.58 28.07 153.1 28.07 134.63 28.07 119.59 28.07 102.44 28.07 87.13 28.07 70.25 28.07 53.49 28.07 47.54 28.07 46.88 19.86 208.94 19.86"/><polygon class="cls-9" points="175.04 217.91 174.73 226.12 174.69 226.12 165.72 226.12 160.96 217.91 174.95 217.91 175.04 217.91"/><polygon class="cls-13" points="125.43 108.69 125.43 111.27 93.09 123.85 93.09 121.27 125.43 108.69"/><path class="cls-7" d="M97.85,153.87l.1,2.73H82.51a.88.88,0,0,1-.62-1.49l1.39-1.24Z" transform="translate(-22.59 -81.29)"/><polygon class="cls-5" points="152.49 197.79 160.96 207.59 95.26 207.59 103.73 197.79 128.09 197.79 152.49 197.79"/><path class="cls-10" d="M110.43,130.28v6.08h-8.59a3,3,0,0,0-3,3v.69l-.87.77H91.37V129.75h19.06Z" transform="translate(-22.59 -81.29)"/><polygon class="cls-9" points="78.91 168.66 79.32 179.52 69.84 179.52 69.84 168.66 78.91 168.66"/><path class="cls-14" d="M148,166.3v8.81l-32.34,12.43V165.41a8.66,8.66,0,0,0,3.8-5.68h2.83a9.62,9.62,0,0,0,1.24,2.93,8.66,8.66,0,0,0,7.31,4,8.3,8.3,0,0,0,8.24-6.93h2.83a9.53,9.53,0,0,0,1.22,2.9A8.58,8.58,0,0,0,148,166.3Z" transform="translate(-22.59 -81.29)"/><polygon class="cls-5" points="63.11 70.44 64 69.64 75.15 69.64 75.26 72.58 60.7 72.58 63.11 70.44"/><polygon class="cls-10" points="69.84 168.66 69.84 179.52 60.57 179.52 60.26 179.53 59.77 168.66 59.78 168.66 69.84 168.66"/><polygon class="cls-13" points="125.43 114.07 93.09 126.65 93.09 125.84 125.43 113.26 125.43 114.07"/><polygon class="cls-6" points="209.6 17.22 208.94 19.86 208.94 19.86 46.88 19.86 46.88 19.86 46.23 17.22 209.6 17.22"/><polygon class="cls-9" points="196.05 168.66 195.56 179.52 183.95 179.52 176.54 179.52 176.5 179.52 176.91 168.66 177.07 168.66 190.57 168.66 196.05 168.66"/><polygon class="cls-6" points="187.94 28.2 187.94 37.6 171.58 37.6 171.58 28.2 171.58 28.07 187.94 28.07 187.94 28.2"/><path class="cls-11" d="M218.19,173.18v.26H202.4l.37-9.76a8.72,8.72,0,0,0,6.56,3,8.13,8.13,0,0,0,7.19-4.14l.35.07h1.32v10.59Z" transform="translate(-22.59 -81.29)"/><polygon class="cls-15" points="95.26 207.59 95.26 209.17 80.69 209.17 80.45 209.19 80.39 207.59 80.55 207.59 95.26 207.59"/><polygon class="cls-6" points="63.22 125.77 63.22 136.1 58.45 136.1 58.31 136.1 57.83 125.25 57.92 125.24 63.22 125.24 63.22 125.77"/><polygon class="cls-16" points="125.43 114.07 125.43 140.32 93.09 140.32 93.09 126.65 125.43 114.07"/><path class="cls-5" d="M188.27,156.66h10c0,7-4.41,10-8.57,10a8.84,8.84,0,0,1-1.44-.12v-9.88Z" transform="translate(-22.59 -81.29)"/><polygon class="cls-5" points="75.33 59.58 76.21 58.8 87.84 58.8 105.58 58.8 120.94 58.8 136.82 58.8 138.02 58.8 139.8 61.25 73.45 61.25 75.33 59.58"/><path class="cls-9" d="M94,271.78l3.18,46.84v.63H57.13l-.18,0-5.73-45.8a1.49,1.49,0,0,1,1.48-1.69H94Z" transform="translate(-22.59 -81.29)"/><polygon class="cls-7" points="180.88 64.08 180.78 66.79 143.85 66.79 141.87 64.08 180.88 64.08"/><polygon class="cls-9" points="95.26 217.91 90.49 226.12 81.22 226.12 81.09 226.13 80.78 217.93 81.22 217.91 95.26 217.91"/><polygon class="cls-6" points="70.25 28.2 70.25 37.6 63.22 37.6 54.22 37.6 53.91 37.62 53.49 28.11 53.49 28.07 70.25 28.07 70.25 28.2"/><path class="cls-7" d="M219.1,155.11a.87.87,0,0,1-.62,1.49H203l.11-2.73h14.56Z" transform="translate(-22.59 -81.29)"/><polygon class="cls-9" points="174.67 227.71 174.73 226.12 175.04 217.91 175.38 209.18 175.43 207.59 176.09 190.48 176.26 190.49 183.95 190.49 185.92 190.49 189.55 237.95 174.28 237.95 174.67 227.71"/><polygon class="cls-15" points="95.26 209.17 95.26 217.91 81.22 217.91 80.78 217.93 80.45 209.19 80.69 209.17 95.26 209.17"/><path class="cls-14" d="M185.65,165.65v9.46L153.3,187.54V166.18a8.39,8.39,0,0,0,5.42-6.45h2.83a9.55,9.55,0,0,0,1.23,2.92,8.66,8.66,0,0,0,7.31,4,8.31,8.31,0,0,0,8.25-6.93h2.83A8.84,8.84,0,0,0,185.65,165.65Z" transform="translate(-22.59 -81.29)"/><polygon class="cls-5" points="145.93 69.64 148.07 72.58 75.26 72.58 75.15 69.64 145.93 69.64"/><path class="cls-4" d="M141.93,159.73H139.1a13.78,13.78,0,0,0,.32-3.07H122v-.06h19.62v.06A12.64,12.64,0,0,0,141.93,159.73Z" transform="translate(-22.59 -81.29)"/><path class="cls-5" d="M150.67,157.29v7.19a9.07,9.07,0,0,1-2.65.08v-4.83h-6.09a12.64,12.64,0,0,1-.35-3.07h9.09Z" transform="translate(-22.59 -81.29)"/><path class="cls-6" d="M101.5,250l-.42-10.86-.41-10.85-.41-10.86-.41-10.85-.42-11.12L99,184.3l-.41-10.86-.38-10a11,11,0,0,0,2-6.77H98v-.06h4.39v.06a11,11,0,0,0,1.58,6,8.67,8.67,0,0,0,7.32,4,8.23,8.23,0,0,0,1.84-.2V279.08h0l-9.9,9.8H103l-.66-17.11-.41-11Z" transform="translate(-22.59 -81.29)"/><rect class="cls-4" x="125.43" y="140.32" width="0.83" height="2.91"/><polygon class="cls-11" points="70.1 124.45 70.1 125.24 63.22 125.24 57.92 125.24 57.83 125.25 57.33 114.13 57.39 114.12 63.22 114.12 70.1 114.12 70.1 124.45"/><polygon class="cls-6" points="81.15 227.71 81.54 237.95 74.61 237.95 74.61 237.32 71.43 190.49 79.56 190.49 79.74 190.48 80.39 207.59 80.45 209.19 80.78 217.93 81.09 226.13 81.15 227.71"/><path class="cls-2" d="M202.2,139.41v.69h-8.63v-3.74h5.58A3,3,0,0,1,202.2,139.41Z" transform="translate(-22.59 -81.29)"/><polygon class="cls-10" points="200.93 59.58 200.44 70.44 200.37 70.44 196.4 70.44 196.4 69.91 196.4 59.84 196.4 59.58 200.93 59.58"/><polygon class="cls-10" points="187.13 102.74 187.13 103 179.41 103 179.82 92.14 179.98 92.15 187.13 92.15 187.13 92.41 187.13 102.74"/><polygon class="cls-9" points="171.58 37.6 187.94 37.6 191.63 37.6 191.63 38.22 191.63 48.25 191.63 48.46 186.87 48.46 170.98 48.46 153.77 48.46 136.82 48.46 120.94 48.46 105.58 48.46 87.84 48.46 68.78 48.46 63.22 48.46 63.22 48.2 63.22 38.13 63.22 37.6 70.25 37.6 87.13 37.6 102.44 37.6 119.59 37.6 134.63 37.6 153.1 37.6 171.58 37.6"/><path class="cls-12" d="M176.36,139.82v.28H160.6s.07-3.74,0-3.74h15.76Z" transform="translate(-22.59 -81.29)"/><path class="cls-3" d="M176.45,156.66h2.21a13.78,13.78,0,0,1-.32,3.07h-2.43a11.1,11.1,0,0,0,.54-2.87Z" transform="translate(-22.59 -81.29)"/><polygon class="cls-10" points="197.02 146.95 196.53 157.81 196.4 157.81 190.57 157.81 183.95 157.81 183.95 146.95 197.02 146.95"/><path class="cls-5" d="M98,157.55h0c-1,9-10.9,7.8-13.51,5h-.22a11,11,0,0,1-1.54-5.93H98Z" transform="translate(-22.59 -81.29)"/><polygon class="cls-6" points="183.95 114.39 183.95 125.24 178.66 125.24 178.56 125.24 178.98 114.12 183.95 114.12 183.95 114.39"/><polygon class="cls-9" points="76 92.14 76.42 103 69.45 103 69.45 102.61 69.45 92.32 69.45 92.15 75.93 92.15 76 92.14"/><path class="cls-3" d="M137.39,156.66h2a13.78,13.78,0,0,1-.32,3.07h-2.24a10.71,10.71,0,0,0,.53-2.87Z" transform="translate(-22.59 -81.29)"/><polygon class="cls-16" points="125.43 111.27 125.43 113.26 93.09 125.84 93.09 123.85 125.43 111.27"/><polygon class="cls-9" points="90.49 226.12 90.49 227.71 81.22 227.71 81.15 227.71 81.09 226.13 81.22 226.12 90.49 226.12"/><path class="cls-4" d="M122.31,159.73h-2.83a13.78,13.78,0,0,0,.32-3.07H102.34v-.06H122v.06A12.64,12.64,0,0,0,122.31,159.73Z" transform="translate(-22.59 -81.29)"/><path class="cls-9" d="M180.81,156.6H203v.06h-2.61a10.48,10.48,0,0,0,2.34,7l-.37,9.76L202,184.3l-.42,11.12-.42,11.11-.41,10.85-.42,10.87-.41,10.85L199.5,250l-.41,10.86-.42,11L198,288.89h-.16l-9.57-9.8h0V166.54a8.84,8.84,0,0,0,1.44.12c4.16,0,8.57-3,8.57-10H180.81Z" transform="translate(-22.59 -81.29)"/><path class="cls-3" d="M104,162.59c1.57,1.66,5.74,2.77,9.06,1.44v2.43a8.23,8.23,0,0,1-1.84.2,8.67,8.67,0,0,1-7.32-4Z" transform="translate(-22.59 -81.29)"/><polygon class="cls-16" points="125.43 93.82 125.43 108.69 93.09 121.27 93.09 106.25 125.43 93.82"/><polygon class="cls-10" points="69.45 102.61 69.45 103 63.22 103 57.13 103 56.84 103.02 56.35 92.17 56.86 92.15 61.27 92.15 69.45 92.15 69.45 92.32 69.45 102.61"/><polygon class="cls-9" points="87.13 28.2 87.13 37.6 70.25 37.6 70.25 28.2 70.25 28.07 87.13 28.07 87.13 28.2"/><polygon class="cls-15" points="174.67 227.71 174.28 237.95 165.72 237.95 165.72 227.71 174.67 227.71"/><path class="cls-5" d="M113.08,157.29V164c-3.32,1.33-7.49.22-9.06-1.44l-.1.06a11,11,0,0,1-1.58-6h10.74Z" transform="translate(-22.59 -81.29)"/><polygon class="cls-17" points="191.82 69.64 180.67 69.64 180.78 66.79 188.61 66.79 191.82 69.64"/><rect class="cls-16" x="93.09" y="143.23" width="32.34" height="5.04"/><rect class="cls-4" x="93.09" y="140.32" width="32.34" height="2.91"/><path class="cls-2" d="M110.43,139.82v.28H98.79v-.69a3,3,0,0,1,3-3h8.59Z" transform="translate(-22.59 -81.29)"/><path class="cls-5" d="M137.39,156.66v.2a10.71,10.71,0,0,1-.53,2.87H122.31a12.64,12.64,0,0,1-.35-3.07Z" transform="translate(-22.59 -81.29)"/><path class="cls-3" d="M136.86,159.73h2.24a8.3,8.3,0,0,1-8.24,6.93,8.66,8.66,0,0,1-7.31-4l.27-.07C126.2,165.11,134.6,166.37,136.86,159.73Z" transform="translate(-22.59 -81.29)"/><polygon class="cls-5" points="141.87 64.08 143.85 66.79 75.04 66.79 74.94 64.08 141.87 64.08"/><path class="cls-3" d="M148,164.56v1.74a8.58,8.58,0,0,1-4.87-3.67l.08,0A8,8,0,0,0,148,164.56Z" transform="translate(-22.59 -81.29)"/><path class="cls-4" d="M185.65,238.35v-4.23H153.3v39.81h32.35Zm2.62-71.81V279.08h-37.6V166.65a8.19,8.19,0,0,0,2.63-.47v55.44h-.83v2.91h.83v5h32.35v-5h.82v-2.91h-.82v-56A8.83,8.83,0,0,0,188.27,166.54Z" transform="translate(-22.59 -81.29)"/><polygon class="cls-11" points="202.33 28.07 202.33 28.11 201.91 37.6 191.63 37.6 187.94 37.6 187.94 28.2 187.94 28.07 202.33 28.07"/><polygon class="cls-10" points="199.96 81.29 199.47 92.15 199.31 92.15 195.6 92.15 195.6 91.88 195.6 81.56 195.6 81.29 199.96 81.29"/><rect class="cls-4" x="130.72" y="140.32" width="32.34" height="2.91"/><polygon class="cls-9" points="71.96 136.1 71.96 146.95 65.07 146.95 58.8 146.95 58.31 136.1 58.45 136.1 63.22 136.1 71.96 136.1"/><rect class="cls-16" x="130.72" y="143.23" width="32.34" height="5.04"/><polygon class="cls-10" points="65.07 146.95 65.07 157.81 59.51 157.81 59.29 157.82 58.8 146.95 65.07 146.95"/><polygon class="cls-10" points="197.99 125.24 197.5 136.1 197.46 136.1 190.57 136.1 190.57 125.24 197.99 125.24"/><polygon class="cls-10" points="77.67 136.1 78.09 146.95 71.96 146.95 71.96 136.1 77.67 136.1"/><path class="cls-11" d="M209.45,140.34v.53h-6.38l-.87-.77v-.69a3,3,0,0,0-3-3h-5.58v-6.61h15.88v10.59Z" transform="translate(-22.59 -81.29)"/><path class="cls-3" d="M170.09,166.66a8.66,8.66,0,0,1-7.31-4l.1-.06c2.37,2.52,10.77,3.78,13-2.86h2.43A8.31,8.31,0,0,1,170.09,166.66Z" transform="translate(-22.59 -81.29)"/><polygon class="cls-16" points="163.06 93.82 163.06 108.69 130.72 121.27 130.72 106.25 163.06 93.82"/><polygon class="cls-7" points="188.61 66.79 180.78 66.79 180.88 64.08 141.87 64.08 141.68 63.82 185.26 63.82 188.61 66.79"/><polygon class="cls-10" points="63.22 48.2 63.22 48.46 55.01 48.46 54.4 48.49 53.91 37.62 54.22 37.6 63.22 37.6 63.22 38.13 63.22 48.2"/><polygon class="cls-15" points="90.49 227.71 90.49 237.95 81.77 237.95 81.54 237.95 81.15 227.71 81.22 227.71 90.49 227.71"/><polygon class="cls-9" points="77.26 125.24 77.67 136.1 71.96 136.1 63.22 136.1 63.22 125.77 63.22 125.24 70.1 125.24 77.25 125.24 77.26 125.24"/><path class="cls-4" d="M161.55,159.73h-2.83a13.78,13.78,0,0,0,.32-3.07H141.58v-.06H161.2v.06A12.64,12.64,0,0,0,161.55,159.73Z" transform="translate(-22.59 -81.29)"/><polygon class="cls-10" points="61.27 91.79 61.27 92.15 56.86 92.15 56.35 92.17 55.86 81.29 61.27 81.29 61.27 81.5 61.27 91.79"/><polygon class="cls-11" points="183.95 146.95 183.95 157.81 177.33 157.81 177.32 157.81 177.74 146.95 183.95 146.95"/><polygon class="cls-16" points="163.06 111.27 163.06 113.26 130.72 125.84 130.72 123.85 163.06 111.27"/><polygon class="cls-11" points="183.95 190.38 183.95 190.49 176.26 190.49 176.09 190.48 176.5 179.52 176.54 179.52 183.95 179.52 183.95 190.38"/><rect class="cls-4" x="129.89" y="140.32" width="0.83" height="2.91"/><rect class="cls-4" x="92.26" y="140.32" width="0.83" height="2.91"/><polygon class="cls-15" points="175.43 207.59 175.38 209.18 175.22 209.17 160.96 209.17 160.96 207.59 175.27 207.59 175.43 207.59"/><path class="cls-9" d="M82.51,156.6H98v.06H82.72a11,11,0,0,0,1.54,5.93H78.45L78,151.74H85.7l-2.42,2.14-1.39,1.24A.88.88,0,0,0,82.51,156.6Z" transform="translate(-22.59 -81.29)"/><polygon class="cls-16" points="125.43 157.02 125.43 192.64 93.09 192.64 93.09 162.83 125.43 157.02"/><polygon class="cls-2" points="180.78 66.79 180.67 69.64 145.93 69.64 143.85 66.79 180.78 66.79"/><polygon class="cls-9" points="63.22 113.86 63.22 114.12 57.39 114.12 57.33 114.13 56.84 103.02 57.13 103 63.22 103 63.22 113.86"/><polygon class="cls-9" points="103.73 197.79 95.26 207.59 80.55 207.59 90.45 197.79 90.49 197.79 103.73 197.79"/><path class="cls-5" d="M188.27,157.29v9.25a8.83,8.83,0,0,1-2.62-.89v-5.92h-4.48a12.62,12.62,0,0,1-.36-3.07h7.46Z" transform="translate(-22.59 -81.29)"/><polygon class="cls-6" points="79.32 179.52 79.74 190.48 79.56 190.49 71.43 190.49 60.75 190.49 60.26 179.53 60.57 179.52 69.84 179.52 79.32 179.52"/><polygon class="cls-7" points="75.04 66.79 75.15 69.64 64 69.64 67.21 66.79 75.04 66.79"/><path class="cls-3" d="M84.48,162.59c2.61,2.77,12.47,4,13.51-5l.22,5.87a8.13,8.13,0,0,1-6.59,3.23,8.68,8.68,0,0,1-7.36-4.07Z" transform="translate(-22.59 -81.29)"/><path class="cls-6" d="M221,271.78v.08c-.38,7.3-3.21,47.17-3.21,47.17l-.12.22h-5.56l-3.63-47.47H221Z" transform="translate(-22.59 -81.29)"/><polygon class="cls-9" points="153.77 48.99 153.77 55.06 138.02 55.06 136.82 55.06 136.82 48.99 136.82 48.46 153.77 48.46 153.77 48.99"/><polygon class="cls-9" points="190.57 125.24 190.57 136.1 178.39 136.1 178.15 136.09 178.56 125.24 178.66 125.24 183.95 125.24 190.57 125.24"/><polygon class="cls-9" points="165.7 197.79 175.27 207.59 160.96 207.59 152.49 197.79 165.69 197.79 165.7 197.79"/><rect class="cls-4" x="163.06" y="140.32" width="0.83" height="2.91"/><polygon class="cls-10" points="192.96 103.27 192.96 114.12 183.95 114.12 178.98 114.12 179.41 103 187.13 103 192.96 103 192.96 103.27"/><path class="cls-3" d="M115.68,162.2v3.21a8.08,8.08,0,0,1-2.6,1.05V164A6.72,6.72,0,0,0,115.68,162.2Z" transform="translate(-22.59 -81.29)"/><path class="cls-3" d="M153.3,163.53v2.65a8.19,8.19,0,0,1-2.63.47v-2.17A7.56,7.56,0,0,0,153.3,163.53Z" transform="translate(-22.59 -81.29)"/><polygon class="cls-9" points="119.59 28.2 119.59 37.6 102.44 37.6 102.44 28.2 102.44 28.07 119.59 28.07 119.59 28.2"/><polygon class="cls-16" points="163.06 114.07 163.06 140.32 130.72 140.32 130.72 126.65 163.06 114.07"/><path class="cls-3" d="M98,157.55l0-.89h2.22a11,11,0,0,1-2,6.77L98,157.56Z" transform="translate(-22.59 -81.29)"/><polygon class="cls-10" points="60.57 69.91 60.57 70.44 55.54 70.44 55.38 70.44 54.89 59.59 55.01 59.58 60.57 59.58 60.57 59.84 60.57 69.91"/><polygon class="cls-2" points="180.56 72.58 180.46 75.3 158.23 75.3 150.06 75.3 148.07 72.58 180.56 72.58"/><polygon class="cls-6" points="220.29 190.49 220.29 190.57 216.37 237.95 211.16 237.95 211.19 237.8 205.05 190.49 220.29 190.49"/><path class="cls-5" d="M122.31,159.73h14.55c-2.26,6.64-10.66,5.38-13,2.86l-.27.07A9.62,9.62,0,0,1,122.31,159.73Z" transform="translate(-22.59 -81.29)"/><polygon class="cls-6" points="67.21 66.79 64 69.64 63.11 70.44 60.57 70.44 60.57 69.91 60.57 59.84 60.57 59.58 68.78 59.58 75.33 59.58 73.45 61.25 70.56 63.82 67.21 66.79"/><polygon class="cls-14" points="163.06 152.82 163.06 157.06 130.9 162.83 130.72 162.83 130.72 152.82 163.06 152.82"/><path class="cls-6" d="M217.71,153.87l-2.28-2,.11-.12H223l-.49,10.86h-5.67l-.35-.07a11.75,11.75,0,0,0,1.38-5.86H203v-.06h15.44a.87.87,0,0,0,.62-1.49Z" transform="translate(-22.59 -81.29)"/><path class="cls-18" d="M243.94,319.25h.1l0,.37,18.18,18.48a.9.9,0,0,1-.56,1.61h-222a.9.9,0,0,1-.56-1.61L57,319.63l0-.36.18,0h155l-2.55,9.89,1.28,2.11,6.83-12h16.05L232.26,330l2.17,5.65c1.23-2.32,4.53-16.35,4.53-16.35Z" transform="translate(-22.59 -81.29)"/><path class="cls-5" d="M115.68,159.73h1.38a7.43,7.43,0,0,1-1.38,2.47Z" transform="translate(-22.59 -81.29)"/><polygon class="cls-2" points="182.37 61.25 185.26 63.82 141.68 63.82 139.8 61.25 182.37 61.25"/><polygon class="cls-13" points="163.06 114.07 130.72 126.65 130.72 125.84 163.06 113.26 163.06 114.07"/><polygon class="cls-5" points="160.96 217.91 165.72 226.12 90.49 226.12 95.26 217.91 160.96 217.91"/><polygon class="cls-7" points="139.8 61.25 141.68 63.82 70.56 63.82 73.45 61.25 139.8 61.25"/><polygon class="cls-11" points="136.82 48.99 136.82 55.06 120.94 55.06 120.94 48.99 120.94 48.46 136.82 48.46 136.82 48.99"/><polygon class="cls-6" points="170.98 48.99 170.98 55.06 153.77 55.06 153.77 48.99 153.77 48.46 170.98 48.46 170.98 48.99"/><polygon class="cls-6" points="105.58 48.99 105.58 55.06 87.84 55.06 87.84 48.99 87.84 48.46 105.58 48.46 105.58 48.99"/><polygon class="cls-10" points="120.94 48.99 120.94 55.06 105.58 55.06 105.58 48.99 105.58 48.46 120.94 48.46 120.94 48.99"/><rect class="cls-2" x="95.26" y="207.59" width="65.7" height="1.59"/><path class="cls-5" d="M161.55,159.73h14.36c-2.26,6.64-10.66,5.38-13,2.86l-.1.06A9.55,9.55,0,0,1,161.55,159.73Z" transform="translate(-22.59 -81.29)"/><path class="cls-5" d="M176.45,156.66v.2a11.1,11.1,0,0,1-.54,2.87H161.55a12.64,12.64,0,0,1-.35-3.07Z" transform="translate(-22.59 -81.29)"/><polygon class="cls-8" points="195.11 237.95 188.29 249.96 187 247.84 189.55 237.95 195.11 237.95"/><path class="cls-5" d="M156.79,156.66v.2a10.71,10.71,0,0,1-.53,2.87h-3v3.8a7.56,7.56,0,0,1-2.63.95v-7.82Z" transform="translate(-22.59 -81.29)"/><path class="cls-5" d="M117.59,156.66v.2a11.12,11.12,0,0,1-.53,2.87h-1.38v2.47a6.72,6.72,0,0,1-2.6,1.83v-7.37Z" transform="translate(-22.59 -81.29)"/><polygon class="cls-11" points="68.78 59.05 68.78 59.58 60.57 59.58 55.01 59.58 54.89 59.59 54.4 48.49 55.01 48.46 63.22 48.46 68.78 48.46 68.78 48.99 68.78 59.05"/><path class="cls-5" d="M203,156.66H217.9a11.75,11.75,0,0,1-1.38,5.86,8.13,8.13,0,0,1-7.19,4.14,8.72,8.72,0,0,1-6.56-3Z" transform="translate(-22.59 -81.29)"/><polygon class="cls-10" points="171.58 28.2 171.58 37.6 153.1 37.6 153.1 28.2 153.1 28.07 171.58 28.07 171.58 28.2"/><polygon class="cls-13" points="163.06 108.69 163.06 111.27 130.72 123.85 130.72 121.27 163.06 108.69"/><path class="cls-3" d="M156.26,159.73h2.46a8.39,8.39,0,0,1-5.42,6.45v-2.65A6.85,6.85,0,0,0,156.26,159.73Z" transform="translate(-22.59 -81.29)"/><path class="cls-5" d="M185.65,159.73v5.92a8.84,8.84,0,0,1-4.48-5.92Z" transform="translate(-22.59 -81.29)"/><polygon class="cls-10" points="76.84 114.12 70.1 114.12 63.22 114.12 63.22 113.86 63.22 103 69.45 103 76.42 103 76.84 114.12"/><polygon class="cls-9" points="174.73 226.12 174.67 227.71 165.72 227.71 165.72 226.12 174.69 226.12 174.73 226.12"/><polygon class="cls-16" points="163.06 157.06 163.06 192.64 130.72 192.64 130.72 162.83 130.9 162.83 163.06 157.06"/><polygon class="cls-6" points="78.09 146.95 78.5 157.81 65.07 157.81 65.07 146.95 71.96 146.95 78.09 146.95"/><polygon class="cls-10" points="201.91 37.6 201.42 48.46 191.63 48.46 191.63 48.25 191.63 38.22 191.63 37.6 201.91 37.6"/><path class="cls-9" d="M227.63,271.78l6.14,47.32,0,.15H217.7l.12-.22s2.83-39.87,3.21-47.17v-.08Z" transform="translate(-22.59 -81.29)"/><polygon class="cls-14" points="125.43 152.82 125.43 157.02 93.09 162.83 93.09 152.82 125.43 152.82"/><polygon class="cls-7" points="180.49 59.58 182.37 61.25 139.8 61.25 138.02 58.8 153.77 58.8 170.98 58.8 179.61 58.8 180.49 59.58"/><polygon class="cls-11" points="198.99 103 198.49 114.12 192.96 114.12 192.96 103.27 192.96 103 198.99 103"/><polygon class="cls-9" points="198.49 114.12 197.99 125.24 190.57 125.24 183.95 125.24 183.95 114.39 183.95 114.12 192.96 114.12 198.49 114.12"/><polygon class="cls-7" points="180.67 69.64 180.56 72.58 148.07 72.58 145.93 69.64 180.67 69.64"/><polygon class="cls-10" points="134.63 28.2 134.63 37.6 119.59 37.6 119.59 28.2 119.59 28.07 134.63 28.07 134.63 28.2"/><polygon class="cls-7" points="143.85 66.79 145.93 69.64 75.15 69.64 75.04 66.79 143.85 66.79"/><polygon class="cls-10" points="201.42 48.46 200.93 59.58 196.4 59.58 186.87 59.58 186.87 59.05 186.87 48.99 186.87 48.46 191.63 48.46 201.42 48.46"/><path class="cls-3" d="M156.79,156.66H159a13.78,13.78,0,0,1-.32,3.07h-2.46a10.71,10.71,0,0,0,.53-2.87Z" transform="translate(-22.59 -81.29)"/><polygon class="cls-6" points="197.5 136.1 197.02 146.95 183.95 146.95 177.74 146.95 178.15 136.09 178.39 136.1 190.57 136.1 197.46 136.1 197.5 136.1"/><polygon class="cls-6" points="185.92 190.49 183.95 190.49 183.95 190.38 183.95 179.52 195.56 179.52 195.07 190.49 185.92 190.49"/><polygon class="cls-11" points="78.5 157.81 78.91 168.66 69.84 168.66 59.78 168.66 59.77 168.66 59.29 157.82 59.51 157.81 65.07 157.81 78.5 157.81"/><polygon class="cls-10" points="185.26 63.82 182.37 61.25 180.49 59.58 186.87 59.58 196.4 59.58 196.4 59.84 196.4 69.91 196.4 70.44 192.96 70.44 192.85 70.56 191.82 69.64 188.61 66.79 185.26 63.82"/><path class="cls-5" d="M148,159.73v4.83a8,8,0,0,1-4.79-2l-.08,0a9.53,9.53,0,0,1-1.22-2.9Z" transform="translate(-22.59 -81.29)"/><path class="cls-11" d="M83.86,162.8v-.21h.4a8.68,8.68,0,0,0,7.36,4.07,8.13,8.13,0,0,0,6.59-3.23l.38,10H83.86V162.8Z" transform="translate(-22.59 -81.29)"/><polygon class="cls-11" points="153.1 28.2 153.1 37.6 134.63 37.6 134.63 28.2 134.63 28.07 153.1 28.07 153.1 28.2"/><polygon class="cls-15" points="175.38 209.18 175.04 217.91 174.95 217.91 160.96 217.91 160.96 209.17 175.22 209.17 175.38 209.18"/><path class="cls-4" d="M150.67,166.65V279.08H113.08V166.46a8.08,8.08,0,0,0,2.6-1.05v56.21h-.83v2.91h.83v5H148v-5h.83v-2.91H148V166.3a8.65,8.65,0,0,0,2.45.36ZM148,273.93V234.12H115.68v39.81Z" transform="translate(-22.59 -81.29)"/><polyline class="cls-19" points="60.75 190.49 60.26 179.53 59.77 168.66 59.29 157.82 58.8 146.95 58.31 136.1 57.83 125.25 57.33 114.13 56.84 103.02 56.35 92.17 55.86 81.29 55.38 70.44 54.89 59.59 54.4 48.49 53.91 37.62 53.49 28.11"/><path class="cls-19" d="M102.15,271.78H52.7a1.49,1.49,0,0,0-1.48,1.69L57,319.27l0,.36L39.07,338.11a.9.9,0,0,0,.56,1.61h222a.9.9,0,0,0,.56-1.61L244,319.63l0-.37,5.74-45.79a1.5,1.5,0,0,0-1.48-1.69H198.85" transform="translate(-22.59 -81.29)"/><polyline class="cls-19" points="179.82 92.14 179.41 103 178.98 114.12 178.56 125.24 178.15 136.09 177.74 146.95 177.32 157.81 176.91 168.66 176.5 179.52 176.09 190.48 175.43 207.59 175.38 209.18 175.04 217.91 174.73 226.12 174.67 227.71 174.28 237.95 189.55 237.95 195.11 237.95 211.16 237.95 216.37 237.95 221.35 237.95"/><line class="cls-19" x1="180.46" y1="75.3" x2="180.45" y2="75.37"/><line class="cls-19" x1="75.37" y1="75.37" x2="75.37" y2="75.3"/><polyline class="cls-19" points="34.54 237.95 74.61 237.95 81.54 237.95 81.15 227.71 81.09 226.13 80.78 217.93 80.45 209.19 80.39 207.59 79.74 190.48 79.32 179.52 78.91 168.66 78.5 157.81 78.09 146.95 77.67 136.1 77.26 125.24 76.84 114.12 76.42 103 76 92.14 75.63 82.14"/><polyline class="cls-19" points="195.07 190.49 195.56 179.52 196.05 168.66 196.53 157.81 197.02 146.95 197.5 136.1 197.99 125.24 198.49 114.12 198.99 103 199.47 92.15 199.96 81.29 200.44 70.44 200.93 59.58 201.42 48.46 201.91 37.6 202.33 28.11"/><polygon class="cls-19" points="202.33 28.07 208.28 28.07 208.94 19.86 46.88 19.86 47.54 28.07 53.49 28.07 70.25 28.07 87.13 28.07 102.44 28.07 119.59 28.07 134.63 28.07 153.1 28.07 171.58 28.07 187.94 28.07 202.33 28.07"/><polyline class="cls-19" points="174.69 226.12 165.72 226.12 90.49 226.12 81.22 226.12"/><polyline class="cls-19" points="174.69 227.71 174.67 227.71 165.72 227.71 90.49 227.71 81.22 227.71"/><polyline class="cls-19" points="81.22 217.91 95.26 217.91 160.96 217.91 174.95 217.91"/><polyline class="cls-19" points="80.69 209.17 95.26 209.17 160.96 209.17 175.22 209.17"/><polygon class="cls-19" points="175.27 207.59 160.96 207.59 95.26 207.59 80.55 207.59 90.45 197.79 90.49 197.79 103.73 197.79 128.09 197.79 152.49 197.79 165.69 197.79 165.7 197.79 175.27 207.59"/><line class="cls-19" x1="90.49" y1="197.79" x2="90.49" y2="85.17"/><line class="cls-19" x1="165.68" y1="197.79" x2="165.68" y2="85.24"/><line class="cls-19" x1="128.09" y1="197.79" x2="128.09" y2="85.36"/><polygon class="cls-19" points="125.43 157.02 125.43 192.64 93.09 192.64 93.09 162.83 93.09 152.82 125.43 152.82 125.43 157.02"/><polyline class="cls-19" points="125.43 85.01 125.43 93.82 125.43 108.69 125.43 111.27 125.43 113.26 125.43 114.07 125.43 140.32"/><line class="cls-19" x1="116.52" y1="78.44" x2="119.35" y2="78.44"/><line class="cls-19" x1="96.9" y1="78.44" x2="99.73" y2="78.44"/><polyline class="cls-19" points="93.09 140.32 93.09 126.65 93.09 125.84 93.09 123.85 93.09 121.27 93.09 106.25 93.09 84.12"/><polyline class="cls-19" points="125.43 143.23 125.43 148.27 93.09 148.27 93.09 143.23"/><polyline class="cls-19" points="163.06 84.35 163.06 93.82 163.06 108.69 163.06 111.27 163.06 113.26 163.06 114.07 163.06 140.32"/><line class="cls-19" x1="155.75" y1="78.44" x2="158.58" y2="78.44"/><line class="cls-19" x1="136.13" y1="78.44" x2="138.97" y2="78.44"/><polyline class="cls-19" points="130.72 140.32 130.72 126.65 130.72 125.84 130.72 123.85 130.72 121.27 130.72 106.25 130.72 84.89"/><polyline class="cls-19" points="163.06 143.23 163.06 148.27 130.72 148.27 130.72 143.23"/><polyline class="cls-19" points="46.88 19.86 46.23 17.22 209.6 17.22 208.94 19.86"/><polygon class="cls-19" points="163.06 140.32 163.89 140.32 163.89 143.23 163.06 143.23 130.72 143.23 129.89 143.23 129.89 140.32 130.72 140.32 163.06 140.32"/><polygon class="cls-19" points="125.43 140.32 126.26 140.32 126.26 143.23 125.43 143.23 93.09 143.23 92.26 143.23 92.26 140.32 93.09 140.32 125.43 140.32"/><polyline class="cls-19" points="130.72 162.83 130.72 152.82 163.06 152.82 163.06 157.06"/><path class="cls-19" d="M100.18,156.66a11,11,0,0,1-2,6.77,8.13,8.13,0,0,1-6.59,3.23,8.68,8.68,0,0,1-7.36-4.07,11,11,0,0,1-1.54-5.93" transform="translate(-22.59 -81.29)"/><path class="cls-19" d="M119.8,156.66a13.78,13.78,0,0,1-.32,3.07,8.66,8.66,0,0,1-3.8,5.68,8.08,8.08,0,0,1-2.6,1.05,8.23,8.23,0,0,1-1.84.2,8.67,8.67,0,0,1-7.32-4,11,11,0,0,1-1.58-6" transform="translate(-22.59 -81.29)"/><path class="cls-19" d="M139.42,156.66a13.78,13.78,0,0,1-.32,3.07,8.3,8.3,0,0,1-8.24,6.93,8.66,8.66,0,0,1-7.31-4,9.62,9.62,0,0,1-1.24-2.93,12.64,12.64,0,0,1-.35-3.07" transform="translate(-22.59 -81.29)"/><path class="cls-19" d="M159,156.66a13.78,13.78,0,0,1-.32,3.07,8.39,8.39,0,0,1-5.42,6.45,8.19,8.19,0,0,1-2.63.47h-.2a8.72,8.72,0,0,1-7.32-4,9.53,9.53,0,0,1-1.22-2.9,12.64,12.64,0,0,1-.35-3.07" transform="translate(-22.59 -81.29)"/><path class="cls-19" d="M178.66,156.66a13.78,13.78,0,0,1-.32,3.07,8.31,8.31,0,0,1-8.25,6.93,8.66,8.66,0,0,1-7.31-4,9.55,9.55,0,0,1-1.23-2.92,12.64,12.64,0,0,1-.35-3.07" transform="translate(-22.59 -81.29)"/><path class="cls-19" d="M198.28,156.66c0,7-4.41,10-8.57,10a8.75,8.75,0,0,1-8.54-6.93,12.62,12.62,0,0,1-.36-3.07" transform="translate(-22.59 -81.29)"/><path class="cls-19" d="M217.9,156.66a11.75,11.75,0,0,1-1.38,5.86,8.13,8.13,0,0,1-7.19,4.14,8.72,8.72,0,0,1-6.56-3,10.48,10.48,0,0,1-2.34-7" transform="translate(-22.59 -81.29)"/><path class="cls-19" d="M202.2,140.1l.87.77,1.88,1.68,2.89,2.56,3.35,3,3.21,2.86,1,.91,2.28,2,1.39,1.24a.87.87,0,0,1-.62,1.49h-136a.88.88,0,0,1-.62-1.49l1.39-1.24,2.42-2.14.89-.79,3.21-2.86,3.35-3L96,142.55l1.88-1.68.87-.77" transform="translate(-22.59 -81.29)"/><path class="cls-19" d="M202.2,140.1v-.69a3,3,0,0,0-3-3H101.84a3,3,0,0,0-3,3v.69H202.2Z" transform="translate(-22.59 -81.29)"/><polyline class="cls-19" points="103.73 197.79 95.26 207.59 95.26 209.17 95.26 217.91 90.49 226.12 90.49 227.71 90.49 237.95"/><polyline class="cls-19" points="152.49 197.79 160.96 207.59 160.96 209.17 160.96 217.91 165.72 226.12 165.72 227.71 165.72 237.95"/><polyline class="cls-20" points="81.77 237.95 90.49 237.95 165.72 237.95 174.28 237.95"/><rect class="cls-21" x="78.9" y="34.82" width="98.02" height="15.62" rx="7.81"/><path class="cls-16" d="M123.56,119.36a.49.49,0,0,1,.55-.55H127a3.06,3.06,0,1,1,.08,6.11h-2.52v3.44c0,.34-.16.5-.49.5a.44.44,0,0,1-.5-.5Zm1,.44v4.13H127a2.09,2.09,0,0,0,2.26-2.05c0-1.3-1-2.08-2.48-2.08Z" transform="translate(-22.59 -81.29)"/><path class="cls-16" d="M131.78,119.3c0-.34.16-.5.48-.5a.44.44,0,0,1,.51.5v9.06a.44.44,0,0,1-.51.5c-.32,0-.48-.16-.48-.5Z" transform="translate(-22.59 -81.29)"/><path class="cls-16" d="M139.79,119.8h-4.72q-.51,0-.51-.48a.45.45,0,0,1,.51-.51h5.45c.49,0,.68.19.68.44a1.38,1.38,0,0,1-.27.66l-5.28,8h5.2c.35,0,.53.17.53.48a.46.46,0,0,1-.53.51h-6c-.31,0-.47-.19-.47-.57a.94.94,0,0,1,.15-.53Z" transform="translate(-22.59 -81.29)"/><path class="cls-16" d="M147.93,119.8h-4.72c-.34,0-.52-.16-.52-.48a.46.46,0,0,1,.52-.51h5.45c.49,0,.68.19.68.44a1.38,1.38,0,0,1-.27.66l-5.28,8H149c.35,0,.52.17.52.48a.45.45,0,0,1-.52.51h-6c-.31,0-.48-.19-.48-.57a1,1,0,0,1,.15-.53Z" transform="translate(-22.59 -81.29)"/><path class="cls-16" d="M150.64,119.44c0-.41.19-.61.56-.61h4.12a.5.5,0,1,1,0,1h-3.69v3.33h3c.34,0,.5.18.5.52s-.16.47-.5.47h-3v3.73h3.8c.39,0,.58.17.58.51s-.19.48-.58.48H151.2c-.49,0-.56-.12-.56-.61Z" transform="translate(-22.59 -81.29)"/><path class="cls-16" d="M157.31,119.36c0-.37.26-.55.77-.55h3.12a2.87,2.87,0,0,1,3.1,2.82,2.67,2.67,0,0,1-2.09,2.61l1.9,3.72a1.06,1.06,0,0,1,.12.47.41.41,0,0,1-.44.45.49.49,0,0,1-.46-.27l-2.18-4.15H158.3v3.79c0,.41-.16.61-.49.61s-.5-.2-.5-.61Zm1,.44v3.67h3a1.78,1.78,0,0,0,1.95-1.79,1.85,1.85,0,0,0-1.95-1.88Z" transform="translate(-22.59 -81.29)"/><path class="cls-16" d="M165.65,119.3c0-.34.16-.5.49-.5a.44.44,0,0,1,.5.5v9.06a.44.44,0,0,1-.5.5c-.33,0-.49-.16-.49-.5Z" transform="translate(-22.59 -81.29)"/><path class="cls-16" d="M174.51,126.8h-4.67l-.55,1.55c-.13.34-.33.51-.61.51a.42.42,0,0,1-.44-.47.76.76,0,0,1,.06-.27l3.06-8.68a.81.81,0,0,1,1.57,0l3.18,8.68a.72.72,0,0,1,0,.28.43.43,0,0,1-.46.46.47.47,0,0,1-.49-.32Zm-4.38-1h4l-2-5.56Z" transform="translate(-22.59 -81.29)"/><polygon class="cls-16" points="27.27 49.89 26.36 40.28 26.34 40.26 26.36 40.25 33.43 40.25 33.43 48.8 27.27 49.89"/><polygon class="cls-16" points="39.87 47.67 39.79 48.48 33.43 49.6 33.43 48.8 39.87 47.67"/><polygon class="cls-16" points="27.27 49.89 27.34 50.68 27.47 52.01 27.7 54.43 29.16 69.89 29.16 69.9 25.97 68.96 21.18 46.31 20.75 44.31 26.34 40.26 26.36 40.28 27.27 49.89"/><polygon class="cls-16" points="33.43 49.6 33.43 50.94 27.53 52 27.47 52.01 27.34 50.68 33.43 49.6"/><polygon class="cls-16" points="39.66 49.81 39.44 52.2 33.43 53.34 33.43 50.94 39.66 49.81"/><polygon class="cls-13" points="33.43 48.8 33.43 49.6 27.34 50.68 27.27 49.89 33.43 48.8"/><polygon class="cls-4" points="39.98 38.62 39.98 38.66 33.43 38.66 33.43 36.28 34.51 36.28 37.25 36.28 39.98 38.62"/><polygon class="cls-22" points="30.84 70.97 29.06 70.97 25.89 69.89 25.89 69.11 25.97 68.96 29.16 69.9 29.16 69.91 33.43 69.91 33.43 70.97 30.84 70.97"/><polygon class="cls-14" points="39.79 48.48 39.66 49.81 33.43 50.94 33.43 49.6 39.79 48.48"/><polygon class="cls-14" points="33.43 48.8 33.43 40.25 40.57 40.25 40.58 40.26 40.57 40.28 39.87 47.67 33.43 48.8"/><polygon class="cls-14" points="37.76 69.91 33.43 69.91 33.43 69.89 33.43 53.34 39.44 52.2 37.76 69.89 37.76 69.9 37.76 69.91"/><path class="cls-22" d="M56,113.36v4.21H54.94v-3.12A1.08,1.08,0,0,1,56,113.36Z" transform="translate(-22.59 -81.29)"/><polygon class="cls-4" points="36.09 70.97 35.16 73.88 33.43 73.88 33.43 70.97 36.09 70.97"/><path class="cls-4" d="M57.1,117.36v.21H56v-4.21a1.12,1.12,0,0,1,.76.32,1.08,1.08,0,0,1,.32.77Z" transform="translate(-22.59 -81.29)"/><path class="cls-4" d="M70.58,125.26a.4.4,0,0,1,0,.64l-2.25,1.68.42-2-5.58-4H56V120H63.7Z" transform="translate(-22.59 -81.29)"/><polygon class="cls-4" points="36.09 70.97 33.43 70.97 33.43 69.91 37.76 69.91 37.76 69.9 40.7 69.05 40.71 69.11 40.71 69.89 37.87 70.97 36.09 70.97"/><polygon class="cls-22" points="33.43 36.28 33.43 38.66 26.99 38.66 29.67 36.28 32.35 36.28 33.43 36.28"/><polygon class="cls-16" points="29.16 69.89 27.7 54.43 27.8 54.42 33.43 53.34 33.43 69.89 33.43 69.91 29.16 69.91 29.16 69.9 29.16 69.89"/><path class="cls-22" d="M49.58,120H56v1.6H48.93l-5.59,4,.42,2h0l-2.28-1.71a.39.39,0,0,1,0-.64L48.33,120Z" transform="translate(-22.59 -81.29)"/><polygon class="cls-14" points="39.44 52.2 39.66 49.81 39.79 48.48 39.87 47.67 40.57 40.28 40.58 40.26 46.17 44.28 45.74 46.29 40.95 68.98 40.7 69.05 37.76 69.9 37.76 69.89 39.44 52.2"/><polygon class="cls-13" points="33.43 50.94 33.43 53.34 27.8 54.42 27.7 54.43 27.47 52.01 27.53 52 33.43 50.94"/><polygon class="cls-22" points="33.43 70.97 33.43 73.88 31.76 73.88 30.84 70.97 33.43 70.97"/><polygon class="cls-19" points="33.43 40.25 40.57 40.25 40.58 40.26 46.17 44.28 45.74 46.29 40.95 68.98 40.7 69.05 37.76 69.9 37.76 69.91 33.43 69.91 29.16 69.91 29.16 69.9 25.97 68.96 21.18 46.31 20.75 44.31 26.34 40.26 26.36 40.25 33.43 40.25"/><path class="cls-19" d="M68.29,127.61l0,0,2.25-1.68a.4.4,0,0,0,0-.64L63.7,120H48.33l-6.87,5.31a.39.39,0,0,0,0,.64l2.28,1.71" transform="translate(-22.59 -81.29)"/><polyline class="cls-19" points="39.98 38.62 37.25 36.28 34.51 36.28 33.43 36.28 32.35 36.28 29.67 36.28 26.99 38.66 26.97 38.68"/><polyline class="cls-19" points="40.71 69.11 40.71 69.89 37.87 70.97 36.09 70.97 33.43 70.97 30.84 70.97 29.06 70.97 25.89 69.89 25.89 69.11"/><polyline class="cls-23" points="36.16 70.75 36.09 70.97 35.16 73.88 33.43 73.88 31.76 73.88 30.84 70.97 30.79 70.8"/><path class="cls-19" d="M54.94,117.36v-2.91A1.08,1.08,0,0,1,56,113.36a1.12,1.12,0,0,1,.76.32,1.08,1.08,0,0,1,.32.77v2.91" transform="translate(-22.59 -81.29)"/><polyline class="cls-19" points="26.36 40.28 27.27 49.89 27.34 50.68 27.47 52.01 27.7 54.43 29.16 69.89"/><polyline class="cls-19" points="40.57 40.28 39.87 47.67 39.79 48.48 39.66 49.81 39.44 52.2 37.76 69.89"/><path class="cls-4" d="M260.44,125.26a.4.4,0,0,1,0,.64l-2.25,1.68.43-2-5.59-4h-7.15V120h7.68Z" transform="translate(-22.59 -81.29)"/><polygon class="cls-14" points="229.3 52.2 229.53 49.81 229.65 48.48 229.73 47.67 230.43 40.28 230.44 40.26 236.03 44.28 235.61 46.29 230.82 68.98 230.56 69.05 227.63 69.9 227.62 69.89 229.3 52.2"/><polygon class="cls-4" points="225.96 70.97 223.29 70.97 223.29 69.91 227.62 69.91 227.63 69.9 230.56 69.05 230.58 69.11 230.58 69.89 227.73 70.97 225.96 70.97"/><polygon class="cls-14" points="230.43 40.25 230.44 40.26 230.43 40.28 229.73 47.67 223.29 48.8 223.29 40.25 230.43 40.25"/><polygon class="cls-4" points="229.84 38.62 229.84 38.66 223.29 38.66 223.29 36.28 224.38 36.28 227.12 36.28 229.84 38.62"/><polygon class="cls-16" points="229.73 47.67 229.65 48.48 223.29 49.6 223.29 48.8 229.73 47.67"/><polygon class="cls-14" points="229.65 48.48 229.53 49.81 223.29 50.94 223.29 49.6 229.65 48.48"/><polygon class="cls-16" points="229.53 49.81 229.3 52.2 223.29 53.34 223.29 50.94 229.53 49.81"/><polygon class="cls-14" points="229.3 52.2 227.62 69.89 227.63 69.9 227.62 69.91 223.29 69.91 223.29 69.89 223.29 53.34 229.3 52.2"/><polygon class="cls-4" points="225.96 70.97 225.03 73.88 223.29 73.88 223.29 70.97 225.96 70.97"/><path class="cls-4" d="M247,117.36v.21h-1.08v-4.21a1.09,1.09,0,0,1,1.08,1.09Z" transform="translate(-22.59 -81.29)"/><polygon class="cls-22" points="223.29 70.97 223.29 73.88 221.62 73.88 220.7 70.97 223.29 70.97"/><polygon class="cls-22" points="220.7 70.97 218.92 70.97 215.75 69.89 215.75 69.11 215.83 68.96 219.02 69.9 219.03 69.91 223.29 69.91 223.29 70.97 220.7 70.97"/><polygon class="cls-16" points="223.29 69.89 223.29 69.91 219.03 69.91 219.02 69.9 219.03 69.89 217.56 54.43 217.66 54.42 223.29 53.34 223.29 69.89"/><polygon class="cls-13" points="223.29 50.94 223.29 53.34 217.66 54.42 217.56 54.43 217.33 52.01 217.39 52 223.29 50.94"/><polygon class="cls-16" points="223.29 49.6 223.29 50.94 217.39 52 217.33 52.01 217.21 50.68 223.29 49.6"/><polygon class="cls-13" points="223.29 48.8 223.29 49.6 217.21 50.68 217.13 49.89 223.29 48.8"/><polygon class="cls-16" points="223.29 40.25 223.29 48.8 217.13 49.89 216.22 40.28 216.2 40.26 216.22 40.25 223.29 40.25"/><path class="cls-22" d="M239.44,120h6.44v1.6h-7.09l-5.59,4,.42,2h0l-2.28-1.71a.4.4,0,0,1,0-.64L238.2,120Z" transform="translate(-22.59 -81.29)"/><polygon class="cls-22" points="223.29 36.28 223.29 38.66 216.85 38.66 219.53 36.28 222.21 36.28 223.29 36.28"/><path class="cls-22" d="M245.88,113.36v4.21H244.8v-3.12A1.08,1.08,0,0,1,245.88,113.36Z" transform="translate(-22.59 -81.29)"/><polygon class="cls-16" points="217.21 50.68 217.33 52.01 217.56 54.43 219.03 69.89 219.02 69.9 215.83 68.96 211.04 46.31 210.62 44.31 216.2 40.26 216.22 40.28 217.13 49.89 217.21 50.68"/><polygon class="cls-19" points="223.29 40.25 230.43 40.25 230.44 40.26 236.03 44.28 235.61 46.29 230.82 68.98 230.56 69.05 227.63 69.9 227.62 69.91 223.29 69.91 219.03 69.91 219.02 69.9 215.83 68.96 211.04 46.31 210.62 44.31 216.2 40.26 216.22 40.25 223.29 40.25"/><path class="cls-19" d="M258.16,127.61l0,0,2.25-1.68a.4.4,0,0,0,0-.64L253.56,120H238.2l-6.88,5.31a.4.4,0,0,0,0,.64l2.28,1.71" transform="translate(-22.59 -81.29)"/><polyline class="cls-19" points="229.84 38.62 227.12 36.28 224.38 36.28 223.29 36.28 222.21 36.28 219.53 36.28 216.85 38.66 216.83 38.68"/><polyline class="cls-19" points="230.58 69.11 230.58 69.89 227.73 70.97 225.96 70.97 223.29 70.97 220.7 70.97 218.92 70.97 215.75 69.89 215.75 69.11"/><polyline class="cls-23" points="226.02 70.75 225.96 70.97 225.03 73.88 223.29 73.88 221.62 73.88 220.7 70.97 220.65 70.8"/><path class="cls-19" d="M244.8,117.36v-2.91a1.08,1.08,0,1,1,2.16,0v2.91" transform="translate(-22.59 -81.29)"/><polyline class="cls-19" points="216.22 40.28 217.13 49.89 217.21 50.68 217.33 52.01 217.56 54.43 219.03 69.89"/><polyline class="cls-19" points="230.43 40.28 229.73 47.67 229.65 48.48 229.53 49.81 229.3 52.2 227.62 69.89"/><rect class="cls-19" x="130.72" y="152.82" width="32.34" height="39.82"/><path class="cls-24" d="M239.37,231.07a17.59,17.59,0,0,1-.44,4.59c-.57,2.34-12.6,4.86-12.6,4.86h-.26v-1.45c1-.39,1.9-.77,2.77-1.14,2.69-1.13,4.85-2.09,6-2.57a1.45,1.45,0,0,0,.91-1.53l-.34-2.29C236.66,231.89,239.37,231.07,239.37,231.07Z" transform="translate(-22.59 -81.29)"/><path class="cls-25" d="M233.93,332.87l.33.6a4.37,4.37,0,0,0-.52-.68Z" transform="translate(-22.59 -81.29)"/><path class="cls-26" d="M194.76,229.47h4c-.29,2.66-.57,5.5-.82,8.46,0,.17,0,.34,0,.51h-39.1l17.63-9Z" transform="translate(-22.59 -81.29)"/><path class="cls-27" d="M192.6,133c-1.67,2.63-2.61,4.53-2.66,4.63h0a14.46,14.46,0,0,0-3.89,1.3s.92-2.36,2.17-5.34l.1.05A30.61,30.61,0,0,1,192.6,133Z" transform="translate(-22.59 -81.29)"/><path class="cls-14" d="M224.27,238.61h1.8v.46l-2,.78C224.14,239.44,224.2,239,224.27,238.61Z" transform="translate(-22.59 -81.29)"/><path class="cls-28" d="M241.76,221.62c.51,5.6-8.19,5.72-8.83,5.72l-.33-9.83a.51.51,0,0,0-1,0c-3.52,3.47-5.68,11.46-7,19.08l-5.7-7.13H198.78c.13-1.12.25-2.21.38-3.25.2-1.66.4-3.23.58-4.67.58-1.27,9.87-21.23,29-25.56h0c3.9,5.63,9.13,10.06,10,11.14C239.74,208.46,241.22,215.81,241.76,221.62Z" transform="translate(-22.59 -81.29)"/><path class="cls-24" d="M191.31,171.51l-.06.11c3.41,2,10.22,1.69,9.85-1.82C198.55,172.49,191.86,171.6,191.31,171.51Zm-1.37-1s4.75-7.95,5.21-14.47a28.92,28.92,0,0,0-.53-7.71h-.09c0,.72,0,1.54,0,2.45A3.41,3.41,0,0,0,193,150a4.11,4.11,0,0,0-4.47,2.93,4.6,4.6,0,0,0,3.12,5.72,4.47,4.47,0,0,0,1.77.17c-.13.51-.27,1-.42,1.57C191,167.36,188.52,168.72,189.94,170.53ZM194.47,147h.15s3.11,3.18,10.43,5.43a4.81,4.81,0,0,0-1.34,2,4.9,4.9,0,0,0-.28,1.63,4.82,4.82,0,0,0,9.63,0,4.66,4.66,0,0,0-.29-1.63h0c0-.11-.08-.23-.13-.34a66.32,66.32,0,0,0,13.66.34,11.23,11.23,0,0,1,1.11,4.7,56.4,56.4,0,0,1-4,18.57,4.72,4.72,0,0,1-1.43,1.93c-18.76,15.2-26.42,12.16-27.57,11.55l-.16-.09a9.36,9.36,0,0,1-1.72-1.39c-3.27-3.39-8.1-15.13-8.95-21.6-.92-6.92.63-11.22,2.27-17.37a21.47,21.47,0,0,0,.57-3.63h.09c4-4.45,8-.22,8-.22A.92.92,0,0,0,194.47,147Z" transform="translate(-22.59 -81.29)"/><path class="cls-29" d="M193.93,152a2.19,2.19,0,0,0-1-2,3.41,3.41,0,0,1,1.55.76c0,.46,0,.95-.08,1.46a3.68,3.68,0,0,0-.54-.16Z" transform="translate(-22.59 -81.29)"/><path class="cls-29" d="M187,245h6.11C190,248.78,187,245,187,245Z" transform="translate(-22.59 -81.29)"/><path class="cls-30" d="M234.27,333.48a1.87,1.87,0,0,1-1,3.07,13.51,13.51,0,0,1-6-.18,1.5,1.5,0,0,1-1-1.45h.06S233.24,336.05,234.27,333.48Z" transform="translate(-22.59 -81.29)"/><path class="cls-29" d="M229.34,166.51c.93,1.65,3.91,1.9,4-.43a1.69,1.69,0,0,0-.6-1.5l0,0s1.58-5.68,2.91-3.81a2.52,2.52,0,0,0,.18-1.53c-.35-1-4.63,1.45-5.12,4.93h.18v.07c1.85.05,2.29,3.95-1.48,2.26Zm-3-12.08a13.73,13.73,0,0,0-3.61-4.76l-.58-.12a25.8,25.8,0,0,0,3.37-1.37l0,0s6.53,3.38,5.71,10.9l0,0,.15.1s7-5,6.69,1.16l-.21.3c-.28.41-.55.82-.8,1.24a30.55,30.55,0,0,0-3.56,8.3,2,2,0,0,1-2.46,1.52,3.08,3.08,0,0,1-1.28-.71,2.74,2.74,0,0,1-.44-.51l-.07,0c-1.41,2-2.92,10.12-5.07,12.28-1.05,1.06-5.59,3.18-10.2,5.15-4.8,2.06-9.67,3.95-10.82,4.33a11.61,11.61,0,0,1-8.79-1.11c1.15.61,8.81,3.65,27.57-11.55a4.72,4.72,0,0,0,1.43-1.93,56.4,56.4,0,0,0,4-18.57A11.23,11.23,0,0,0,226.3,154.43Z" transform="translate(-22.59 -81.29)"/><path class="cls-31" d="M219.83,141.8l.08,0Z" transform="translate(-22.59 -81.29)"/><path class="cls-13" d="M158.82,238.44h39.1v.13l-39.09,0Z" transform="translate(-22.59 -81.29)"/><path class="cls-16" d="M189.25,157.05c.74.43,2.7,1.38,4.31.51l.13,0c-.09.42-.18.84-.29,1.28a4.47,4.47,0,0,1-1.77-.17A4.61,4.61,0,0,1,189.25,157.05Z" transform="translate(-22.59 -81.29)"/><path class="cls-13" d="M212.64,154.09c.05.11.09.23.13.34a9.93,9.93,0,0,0-1-.46C212.05,154,212.34,154.06,212.64,154.09Z" transform="translate(-22.59 -81.29)"/><path class="cls-32" d="M233.74,332.79c-3.19-1.24-7,.57-7,.57h0a3.76,3.76,0,0,1,1.15-1.13A4.79,4.79,0,0,1,233.74,332.79Z" transform="translate(-22.59 -81.29)"/><path class="cls-24" d="M210.46,153.54a9.45,9.45,0,0,0-2.53-.3q-1.55-.36-2.88-.78a4.87,4.87,0,0,1,4.41-1.06v0a2.22,2.22,0,0,1,1,2Z" transform="translate(-22.59 -81.29)"/><path class="cls-24" d="M205.05,152.46q1.33.42,2.88.78a8,8,0,0,0-4.22,1.19A4.81,4.81,0,0,1,205.05,152.46Z" transform="translate(-22.59 -81.29)"/><path class="cls-14" d="M210.06,244.08a78.75,78.75,0,0,0,14-4.23c-.15,1.06-.29,2.09-.41,3.09-3,.71-6.3,1.4-9.91,2H206.4a1.82,1.82,0,0,1-.14-.24Z" transform="translate(-22.59 -81.29)"/><path class="cls-33" d="M186.47,142.3s.05.84,0,2.07h-.06c-2.38.74-5.45,1.61-7.52,2.26a5.58,5.58,0,0,1-5.58-1.2l.05,0h0l.08,0,.05,0a34,34,0,0,1,7.26-2.48h0A22.73,22.73,0,0,1,186.47,142.3Z" transform="translate(-22.59 -81.29)"/><path class="cls-14" d="M223.67,242.94c-.09.69-.16,1.37-.24,2h-9.67C217.37,244.34,220.69,243.65,223.67,242.94Z" transform="translate(-22.59 -81.29)"/><path class="cls-13" d="M210.46,153.54a11.59,11.59,0,0,1,1.3.43c-1.37-.21-2.65-.46-3.83-.73A9.45,9.45,0,0,1,210.46,153.54Z" transform="translate(-22.59 -81.29)"/><path class="cls-24" d="M224,186.26a.66.66,0,0,1,.92.61c0,1.63-.18,4.77-1.19,6.82h0c-2.6,1.37-6.32,2.28-9.76-.79a28.34,28.34,0,0,0,.14-2.92C217.31,190,221.41,187.4,224,186.26Z" transform="translate(-22.59 -81.29)"/><path class="cls-34" d="M194.62,148.35a28.92,28.92,0,0,1,.53,7.71c-.46,6.52-5.21,14.47-5.21,14.47-1.42-1.81,1-3.17,3-10.1.15-.53.29-1.06.42-1.57s.2-.86.29-1.28.15-.7.21-1c.15-.82.27-1.61.36-2.36s.15-1.31.19-1.92.06-1,.08-1.46c0-.91,0-1.73,0-2.45Z" transform="translate(-22.59 -81.29)"/><path class="cls-29" d="M206.4,245h7.31c-1.2.25-1.88,1.94-4.1,1.68A4.27,4.27,0,0,1,206.4,245Z" transform="translate(-22.59 -81.29)"/><path class="cls-24" d="M199.09,226.21h.07c-.13,1-.25,2.13-.38,3.25h-4l.48-4.24A11.77,11.77,0,0,0,199.09,226.21Z" transform="translate(-22.59 -81.29)"/><path class="cls-29" d="M212.64,154.09c-.3,0-.59-.08-.88-.12a11.59,11.59,0,0,0-1.3-.43l0-.09a2.22,2.22,0,0,0-1-2v0A4.87,4.87,0,0,1,212.64,154.09Z" transform="translate(-22.59 -81.29)"/><path class="cls-33" d="M194.63,144.54c.45.1,25.34,5.87,25.15-2.77h0l.05,0,.08,0,.08,0,.08,0,0,0c2.86,1.08,5.91,2.37,9.17,3.92a19.21,19.21,0,0,1-3.8,2.36,25.8,25.8,0,0,1-3.37,1.37,27.31,27.31,0,0,1-3.52.9C212.75,151.53,202.36,147.52,194.63,144.54Z" transform="translate(-22.59 -81.29)"/><path class="cls-24" d="M237.62,156.29c1.69,1.82,1,3.21.46,4.06.34-6.15-6.69-1.16-6.69-1.16l-.15-.1a8.17,8.17,0,0,1,3.69-3h0A2.49,2.49,0,0,1,237.62,156.29Z" transform="translate(-22.59 -81.29)"/><path class="cls-31" d="M212.65,116.33c7.31,0,14.74,4.33,20,8.88h0c3.26,5.73-3.83,15.65-3.83,15.65a2.09,2.09,0,0,1-.2.22c-15.82-8.51-29.42-8.72-36-8.11C196.3,127.15,203.58,117.73,212.65,116.33Z" transform="translate(-22.59 -81.29)"/><path class="cls-16" d="M204.34,158.88a7.58,7.58,0,0,0,8.29-.84,4.81,4.81,0,0,1-8.29.84Z" transform="translate(-22.59 -81.29)"/><path class="cls-35" d="M213.71,245h9.72c-.17,1.58-.31,3-.41,4.29-10.91,1.16-26-1.15-26-1.15h0c.11-1,.22-2,.34-3.14h9.08a4.27,4.27,0,0,0,3.21,1.68C211.83,246.9,212.51,245.21,213.71,245Z" transform="translate(-22.59 -81.29)"/><path class="cls-24" d="M226,306s3.11-.09,3.52.8,1.8,19,1.93,20.74-1.83,1.87-1.83,1.87c-1.58-9.5-3.21-20-3.74-23.39Z" transform="translate(-22.59 -81.29)"/><path class="cls-31" d="M219.78,141.78l.05,0Z" transform="translate(-22.59 -81.29)"/><path class="cls-14" d="M197.91,238.57l26.36,0c-.07.42-.13.83-.19,1.24a78.75,78.75,0,0,1-14,4.23l-3.8.64a1.82,1.82,0,0,0,.14.24h-9.08C197.51,243.05,197.71,240.93,197.91,238.57Z" transform="translate(-22.59 -81.29)"/><path class="cls-14" d="M226.07,240.52v1.83l-2.4.59c.12-1,.26-2,.41-3.09l2-.78Z" transform="translate(-22.59 -81.29)"/><path class="cls-30" d="M210.54,329a1.78,1.78,0,0,1,.33,2.25,21.21,21.21,0,0,1-1.85,2.14l-.6-.54a6.1,6.1,0,0,0-.51-.61A7,7,0,0,0,210.54,329Z" transform="translate(-22.59 -81.29)"/><path class="cls-35" d="M227.08,191.3a21.81,21.81,0,0,0,2.89,4.42c-.42.08-.85.17-1.26.27h0a33.84,33.84,0,0,1-2.37-4l0,0C226.8,191.58,227.08,191.3,227.08,191.3Z" transform="translate(-22.59 -81.29)"/><path class="cls-36" d="M208.6,328.82c0-.3,1.13-17.56-.47-22.82,0,0-.84-1-3.4-.53h-.06l-.14-1.3,0-.21a19.26,19.26,0,0,0,4.62,0l0,.2c1.64,9.12.35,17,.65,24.1A2.63,2.63,0,0,1,208.6,328.82Z" transform="translate(-22.59 -81.29)"/><path class="cls-31" d="M211.27,265.4a43.84,43.84,0,0,0,14.89-3.08s1.22,25.06,3.34,35.21c0,0-2.05,2.82-7.82,1.68h-.1c-1.82-10-3.77-22.31-5.42-22.23a27.88,27.88,0,0,1-6.27-.72c0,.14,0,.28,0,.42-.11,2.66-.76,17-1.74,21.1-2.46,2.48-7.55.77-7.55.77-2.56-19.83-3.19-31.36-3.33-34.77h.12A44.41,44.41,0,0,0,211.27,265.4Z" transform="translate(-22.59 -81.29)"/><path class="cls-25" d="M226.74,333.36s3.81-1.81,7-.57a4.37,4.37,0,0,1,.52.68h0c-1,2.57-8,1.44-8,1.44h-.06a1.63,1.63,0,0,1,.06-.54,3.39,3.39,0,0,1,.46-1Z" transform="translate(-22.59 -81.29)"/><path class="cls-14" d="M226.07,242.35V245h-2.64c.08-.65.15-1.33.24-2Z" transform="translate(-22.59 -81.29)"/><path class="cls-25" d="M206.94,331.33a7.44,7.44,0,0,1,1,.91c-3.44,2.23-8.06.43-8.06.43a4,4,0,0,1,.41-.69h0C200.44,331.9,204,330.27,206.94,331.33Z" transform="translate(-22.59 -81.29)"/><path class="cls-37" d="M194.07,121.72c2-1.81,6.15-5.39,18.58-5.39-9.07,1.4-16.35,10.82-20.05,16.65a30.61,30.61,0,0,0-4.28.64l-.1-.05C190.15,128.94,192.85,122.82,194.07,121.72Z" transform="translate(-22.59 -81.29)"/><path class="cls-33" d="M211.26,264.18v1.22a44.41,44.41,0,0,1-13.9-1.62h-.12c0-.72,0-1.07,0-1.07v0a58.91,58.91,0,0,0,14,1.23Z" transform="translate(-22.59 -81.29)"/><path class="cls-29" d="M241.78,229.1v7.23a1.46,1.46,0,0,1-.93,1.36,122.14,122.14,0,0,1-12.12,4c-.85.23-1.74.47-2.66.7v-1.83h.26s12-2.52,12.6-4.86a17.59,17.59,0,0,0,.44-4.59s-2.71.82-3.91.47l-.18-1.17A26.53,26.53,0,0,0,241.78,229.1Z" transform="translate(-22.59 -81.29)"/><path class="cls-29" d="M229.77,171s-3.78,13.93-2.69,20.3c0,0-.28.28-.79.69a15.16,15.16,0,0,1-2.54,1.7c1-2.05,1.17-5.19,1.19-6.82a.66.66,0,0,0-.92-.61c-2.61,1.14-6.71,3.73-9.89,3.73,0-1.08-.06-1.83-.06-1.83L214,188c4.61-2,9.15-4.09,10.2-5.15,2.15-2.16,3.66-10.29,5.07-12.28l.07,0A2.74,2.74,0,0,0,229.77,171Z" transform="translate(-22.59 -81.29)"/><path class="cls-28" d="M223,249.25c-.25,2.91-.33,4.77-.33,4.77-3.35,9-26.67,3.38-27,3.3.41-2.19.85-5.13,1.31-9.22h0S212.11,250.41,223,249.25Z" transform="translate(-22.59 -81.29)"/><path class="cls-30" d="M208.42,332.85l.6.54a7.94,7.94,0,0,1-2.8,2.06,10.4,10.4,0,0,1-5.13-.31,1.71,1.71,0,0,1-1.24-2.47s4.62,1.8,8.06-.43A6.1,6.1,0,0,1,208.42,332.85Z" transform="translate(-22.59 -81.29)"/><path class="cls-37" d="M186.05,138.91a14.46,14.46,0,0,1,3.89-1.3l-9.12,5.23h0a34,34,0,0,0-7.26,2.48Z" transform="translate(-22.59 -81.29)"/><path class="cls-31" d="M194.63,144.54c-1.3-.5-2.52-1-3.64-1.38a14.65,14.65,0,0,0-4.52-.86,22.73,22.73,0,0,0-5.65.54l9.12-5.23h0c4.89-1.06,14.54-1.55,29.84,4.16C220,150.41,195.08,144.64,194.63,144.54Z" transform="translate(-22.59 -81.29)"/><path class="cls-38" d="M199.74,221.55c-.18,1.44-.38,3-.58,4.67h-.07a11.77,11.77,0,0,1-3.85-1c-1.52-.77-1.52-1.68-1.41-2.08l3.86-13.5a17.21,17.21,0,0,1,6-8.85c5.25-4.12,10.34-7.88,10.34-7.88,3.44,3.07,7.16,2.16,9.76.79h0a15.16,15.16,0,0,0,2.54-1.7l0,0a33.84,33.84,0,0,0,2.37,4C209.61,200.32,200.32,220.28,199.74,221.55Z" transform="translate(-22.59 -81.29)"/><path class="cls-39" d="M228.64,141.09c-2.59,2.63-7.26,1.25-8.53.81l0,0-.08,0-.08,0-.08,0-.05,0h0c-15.3-5.71-24.95-5.22-29.84-4.16.05-.1,1-2,2.66-4.63C199.22,132.37,212.82,132.58,228.64,141.09Z" transform="translate(-22.59 -81.29)"/><path class="cls-14" d="M226.07,238.61h-1.8a1.11,1.11,0,0,0,0-.17h1.78Z" transform="translate(-22.59 -81.29)"/><path class="cls-25" d="M233.74,332.79a4.79,4.79,0,0,0-5.85-.56v0a6,6,0,0,0,1.72-2.8,2.32,2.32,0,0,0,2.92,0,11.86,11.86,0,0,0,1.41,3.46Z" transform="translate(-22.59 -81.29)"/><path class="cls-26" d="M218.89,229.47l5.7,7.13-.3,1.84H197.92c0-.17,0-.34,0-.51.25-3,.53-5.8.82-8.46Z" transform="translate(-22.59 -81.29)"/><path class="cls-33" d="M211.25,263.91c5.95-.24,12.4-1.64,17.36-5.65l.06.07c0,13.45,4.22,45.9,4.22,45.9a9,9,0,0,1-2.57.56,22.92,22.92,0,0,1-4.61,0,6.38,6.38,0,0,1-3.27-1c-.28-1.4-.57-2.93-.86-4.52h.1c5.77,1.14,7.82-1.68,7.82-1.68-2.12-10.15-3.34-35.21-3.34-35.21a43.84,43.84,0,0,1-14.89,3.08v-1.49Z" transform="translate(-22.59 -81.29)"/><path class="cls-29" d="M194.62,147h-.15a.92.92,0,0,1,0-.16s-4-4.23-8,.22h-.09c.08-1,.11-1.95.12-2.73,0-1.23,0-2.07,0-2.07a14.65,14.65,0,0,1,4.52.86c1.12.41,2.34.88,3.64,1.38,7.73,3,18.12,7,24,5.91a27.31,27.31,0,0,0,3.52-.9l.58.12a13.73,13.73,0,0,1,3.61,4.76,66.32,66.32,0,0,1-13.66-.34,4.78,4.78,0,0,0-4.4-2.84,4.82,4.82,0,0,0-3.19,1.21C197.73,150.21,194.62,147,194.62,147Z" transform="translate(-22.59 -81.29)"/><path class="cls-31" d="M220,141.86l.08,0Z" transform="translate(-22.59 -81.29)"/><path class="cls-24" d="M193,150a2.19,2.19,0,0,1,1,2l0,.11a8,8,0,0,0-5.4.87A4.11,4.11,0,0,1,193,150Z" transform="translate(-22.59 -81.29)"/><path class="cls-14" d="M224.29,238.44a1.11,1.11,0,0,1,0,.17l-26.36,0v-.13Z" transform="translate(-22.59 -81.29)"/><path class="cls-36" d="M230.33,304.88c1.58,10.34,1.93,20.25,2.19,24.53a2.32,2.32,0,0,1-2.92,0s2-.11,1.83-1.87-1.53-19.86-1.93-20.74S226,306,226,306l-.12,0-.17-1.12,0-.15a22.92,22.92,0,0,0,4.61,0Z" transform="translate(-22.59 -81.29)"/><path class="cls-25" d="M208.6,328.82a2.63,2.63,0,0,0,1.26-.5l.68.68a7,7,0,0,1-2.63,3.24,7.44,7.44,0,0,0-1-.91,5,5,0,0,0-3.61-1.11c1.13-.28,2.95-.88,3.61-1.9A2.31,2.31,0,0,0,208.6,328.82Z" transform="translate(-22.59 -81.29)"/><path class="cls-29" d="M191.31,171.51c.55.09,7.24,1,9.79-1.71.37,3.51-6.44,3.78-9.85,1.82Z" transform="translate(-22.59 -81.29)"/><path class="cls-35" d="M228.73,241.65v0c0,2.34,0,4.49.08,6.4a29.47,29.47,0,0,1-5.8,1.15c.1-1.26.24-2.71.41-4.29h2.64v-2.61C227,242.12,227.88,241.88,228.73,241.65Z" transform="translate(-22.59 -81.29)"/><path class="cls-40" d="M236.79,149.67a33.45,33.45,0,0,0-1.86,6.39h0a8.17,8.17,0,0,0-3.69,3l0,0c.82-7.52-5.71-10.9-5.71-10.9l0,0a19.21,19.21,0,0,0,3.8-2.36Q232.86,147.53,236.79,149.67Z" transform="translate(-22.59 -81.29)"/><path class="cls-24" d="M208.13,306c1.6,5.26.49,22.52.47,22.82a2.31,2.31,0,0,1-1.66-.5c-.8-9-1.89-19.29-2.27-22.84h.06C207.29,305,208.13,306,208.13,306Z" transform="translate(-22.59 -81.29)"/><path class="cls-35" d="M228.84,237.93c-.87.37-1.8.75-2.77,1.14v-.63l-1.48-1.84c1.32-7.62,3.48-15.61,7-19.08-.4,2.83-2.1,7.28-2.51,14.26-.12,2.15-.21,4.19-.26,6.1Z" transform="translate(-22.59 -81.29)"/><path class="cls-41" d="M235.87,159.2a2.52,2.52,0,0,1-.18,1.53c-1.33-1.87-2.91,3.81-2.91,3.81l0,0a2.83,2.83,0,0,0-1.82-.46h-.18C231.24,160.65,235.52,158.17,235.87,159.2Z" transform="translate(-22.59 -81.29)"/><path class="cls-13" d="M212.77,154.43a4.66,4.66,0,0,1,.29,1.63,4.82,4.82,0,0,1-.43,2,7.58,7.58,0,0,1-8.29.84h0a4.8,4.8,0,0,1-.91-2.82,4.9,4.9,0,0,1,.28-1.63,8,8,0,0,1,4.22-1.19c1.18.27,2.46.52,3.83.73a9.93,9.93,0,0,1,1,.46Zm-2.93,2.92a1.33,1.33,0,0,0-1.26-1.39,1.31,1.31,0,0,0-1.39,1.25,1.32,1.32,0,0,0,1.25,1.39A1.34,1.34,0,0,0,209.84,157.35Z" transform="translate(-22.59 -81.29)"/><path class="cls-42" d="M229.28,145.82c-3.26-1.55-6.31-2.84-9.17-3.92,1.27.44,5.94,1.82,8.53-.81a83.86,83.86,0,0,1,9.25,5.83c-.62,1.65-1.1,2.75-1.1,2.75Q232.86,147.53,229.28,145.82Z" transform="translate(-22.59 -81.29)"/><path class="cls-33" d="M239.82,133.68c1.34,3.31-.59,9.62-1.93,13.24a83.86,83.86,0,0,0-9.25-5.83,2.09,2.09,0,0,0,.2-.22s7.09-9.92,3.83-15.65C236.37,128.4,239,131.7,239.82,133.68Z" transform="translate(-22.59 -81.29)"/><path class="cls-32" d="M206.94,331.33c-2.91-1.06-6.5.57-6.67.65a4.4,4.4,0,0,1,2.16-1.56h0c.11,0,.45-.08.89-.2A5,5,0,0,1,206.94,331.33Z" transform="translate(-22.59 -81.29)"/><path class="cls-26" d="M224.59,236.6l1.48,1.84h-1.78Z" transform="translate(-22.59 -81.29)"/><path class="cls-33" d="M209.87,276.69c-.2,6.29.69,22.05,1.68,26.84a11.63,11.63,0,0,1-2.37.49,19.26,19.26,0,0,1-4.62,0c-1.9-.26-3.37-.84-3.49-1.7-.16-1.27-.33-2.5-.49-3.71,0,0,5.09,1.71,7.55-.77C209.11,293.71,209.76,279.35,209.87,276.69Z" transform="translate(-22.59 -81.29)"/><path class="cls-35" d="M229.4,257.6c-.26.23-.52.45-.79.66-5,4-11.41,5.41-17.36,5.65a58.91,58.91,0,0,1-14-1.23c-.48-.1-.91-.19-1.27-.28a1.37,1.37,0,0,1-1-1.69c.23-.89.48-2,.74-3.39.35.08,23.67,5.69,27-3.3,0,0,.08-1.86.33-4.77a29.47,29.47,0,0,0,5.8-1.15C229,254,229.4,257.6,229.4,257.6Z" transform="translate(-22.59 -81.29)"/><path class="cls-41" d="M233.35,166.08c-.1,2.33-3.08,2.08-4,.43l.11-.06c3.77,1.69,3.33-2.21,1.48-2.26v-.07a2.83,2.83,0,0,1,1.82.46A1.69,1.69,0,0,1,233.35,166.08Z" transform="translate(-22.59 -81.29)"/><path class="cls-13" d="M193.56,157.56c-1.61.87-3.57-.08-4.31-.51a4.62,4.62,0,0,1-.74-4.08,8,8,0,0,1,5.4-.87,3.68,3.68,0,0,1,.54.16c0,.61-.1,1.25-.19,1.92h0a1.33,1.33,0,1,0-.36,2.35h0c-.06.34-.13.69-.21,1Z" transform="translate(-22.59 -81.29)"/><path class="cls-14" d="M158.82,238.52l39.09,0c-.2,2.36-.4,4.48-.59,6.39h-38.5Z" transform="translate(-22.59 -81.29)"/><path class="cls-35" d="M235.28,230.37c-.77,0-2.18-.49-2.29-1.25l-.06-1.78c.64,0,9.34-.12,8.83-5.72-.54-5.81-2-13.16-3.07-14.49-.85-1.08-6.08-5.51-10-11.14.41-.1.84-.19,1.26-.27a68.79,68.79,0,0,0,9.43,9.35,3.88,3.88,0,0,1,1.36,2.19c1.11,5.08,4.1,14.88,5.31,18.12.24.63.37,1.34-.19,1.72a16.72,16.72,0,0,1-4.1,2A26.53,26.53,0,0,1,235.28,230.37Z" transform="translate(-22.59 -81.29)"/><path class="cls-20" d="M223.75,193.7c-2.6,1.37-6.32,2.28-9.76-.79,0,0-5.09,3.76-10.34,7.88a17.21,17.21,0,0,0-6,8.85l-3.86,13.5c-.11.4-.11,1.31,1.41,2.08a11.77,11.77,0,0,0,3.85,1" transform="translate(-22.59 -81.29)"/><path class="cls-20" d="M228.82,237.88c.05-1.91.14-3.95.26-6.1.41-7,2.11-11.43,2.51-14.26a.51.51,0,0,1,1,0l.33,9.83.06,1.78c.11.76,1.52,1.3,2.29,1.25a26.53,26.53,0,0,0,6.5-1.27,16.72,16.72,0,0,0,4.1-2c.56-.38.43-1.09.19-1.72-1.21-3.24-4.2-13-5.31-18.12a3.88,3.88,0,0,0-1.36-2.19,68.79,68.79,0,0,1-9.43-9.35,21.81,21.81,0,0,1-2.89-4.42s-.28.28-.79.69a15.16,15.16,0,0,1-2.54,1.7" transform="translate(-22.59 -81.29)"/><path class="cls-20" d="M197.32,245c-.12,1.12-.23,2.16-.34,3.14-.46,4.09-.9,7-1.31,9.22-.26,1.4-.51,2.5-.74,3.39a1.37,1.37,0,0,0,1,1.69c.36.09.79.18,1.27.28a58.91,58.91,0,0,0,14,1.23c5.95-.24,12.4-1.64,17.36-5.65.27-.21.53-.43.79-.66,0,0-.4-3.63-.58-9.5-.06-1.91-.09-4.06-.08-6.4" transform="translate(-22.59 -81.29)"/><path class="cls-20" d="M201.1,211.39c0,.85-.63,4.64-1.36,10.16-.18,1.44-.38,3-.58,4.67-.13,1-.25,2.13-.38,3.25" transform="translate(-22.59 -81.29)"/><path class="cls-20" d="M209.89,276.27a27.88,27.88,0,0,0,6.27.72c1.65-.08,3.6,12.27,5.42,22.23.29,1.59.58,3.12.86,4.52a6.38,6.38,0,0,0,3.27,1,22.92,22.92,0,0,0,4.61,0,9,9,0,0,0,2.57-.56s-4.24-32.45-4.22-45.9" transform="translate(-22.59 -81.29)"/><path class="cls-20" d="M197.21,262.72s0,.35,0,1.07c.14,3.41.77,14.94,3.33,34.77.16,1.21.33,2.44.49,3.71.12.86,1.59,1.44,3.49,1.7a19.26,19.26,0,0,0,4.62,0,11.63,11.63,0,0,0,2.37-.49c-1-4.79-1.88-20.55-1.68-26.84" transform="translate(-22.59 -81.29)"/><path class="cls-20" d="M202.44,330.42a3.83,3.83,0,0,1,.89-.2,5,5,0,0,1,3.61,1.11,7.44,7.44,0,0,1,1,.91,6.1,6.1,0,0,1,.51.61" transform="translate(-22.59 -81.29)"/><path class="cls-20" d="M200.27,332a4.4,4.4,0,0,1,2.16-1.56" transform="translate(-22.59 -81.29)"/><path class="cls-20" d="M209.86,328.32l.68.68a1.78,1.78,0,0,1,.33,2.25,21.21,21.21,0,0,1-1.85,2.14,7.94,7.94,0,0,1-2.8,2.06,10.4,10.4,0,0,1-5.13-.31,1.71,1.71,0,0,1-1.24-2.47,4,4,0,0,1,.41-.69" transform="translate(-22.59 -81.29)"/><path class="cls-20" d="M202.4,330.43h0c.11,0,.45-.08.89-.2,1.13-.28,2.95-.88,3.61-1.9" transform="translate(-22.59 -81.29)"/><path class="cls-20" d="M211.26,264.18v1.22l0,6a2.91,2.91,0,0,0,2.45,2.86" transform="translate(-22.59 -81.29)"/><path class="cls-20" d="M194.22,191.09a9.36,9.36,0,0,1-1.72-1.39c-3.27-3.39-8.1-15.13-8.95-21.6-.92-6.92.63-11.22,2.27-17.37a21.47,21.47,0,0,0,.57-3.63c.08-1,.11-1.95.12-2.73,0-1.23,0-2.07,0-2.07" transform="translate(-22.59 -81.29)"/><path class="cls-20" d="M229.26,170.53c-1.41,2-2.92,10.12-5.07,12.28-1.05,1.06-5.59,3.18-10.2,5.15-4.8,2.06-9.67,3.95-10.82,4.33a11.61,11.61,0,0,1-8.79-1.11" transform="translate(-22.59 -81.29)"/><path class="cls-20" d="M234.93,156.06a2.49,2.49,0,0,1,2.69.23c1.69,1.82,1,3.21.46,4.06l-.21.3c-.28.41-.55.82-.8,1.24a30.55,30.55,0,0,0-3.56,8.3,2,2,0,0,1-2.46,1.52,3.08,3.08,0,0,1-1.28-.71,2.74,2.74,0,0,1-.44-.51,3.45,3.45,0,0,1-.49-1" transform="translate(-22.59 -81.29)"/><path class="cls-20" d="M231.24,159.09a8.17,8.17,0,0,1,3.69-3" transform="translate(-22.59 -81.29)"/><path class="cls-43" d="M231.21,159.13l0,0" transform="translate(-22.59 -81.29)"/><path class="cls-20" d="M229.61,162.63a11.19,11.19,0,0,1,1.6-3.5" transform="translate(-22.59 -81.29)"/><path class="cls-20" d="M234.78,162.63a11.94,11.94,0,0,0,.91-1.9,2.52,2.52,0,0,0,.18-1.53c-.35-1-4.63,1.45-5.12,4.93h.18a2.83,2.83,0,0,1,1.82.46,1.69,1.69,0,0,1,.6,1.5c-.1,2.33-3.08,2.08-4,.43a1.34,1.34,0,0,1-.06-.12" transform="translate(-22.59 -81.29)"/><path class="cls-20" d="M201.1,169.8c.37,3.51-6.44,3.78-9.85,1.82a4.76,4.76,0,0,1-1.31-1.09c-1.42-1.81,1-3.17,3-10.1.15-.53.29-1.06.42-1.57s.2-.86.29-1.28.15-.7.21-1c.15-.82.27-1.61.36-2.36s.15-1.31.19-1.92.06-1,.08-1.46c0-.91,0-1.73,0-2.45,0-.49,0-.92-.06-1.31a.92.92,0,0,1,0-.16s-4-4.23-8,.22" transform="translate(-22.59 -81.29)"/><path class="cls-20" d="M214.07,188.16s.05.75.06,1.83a28.34,28.34,0,0,1-.14,2.92" transform="translate(-22.59 -81.29)"/><path class="cls-20" d="M227.08,191.3c-1.09-6.37,2.69-20.3,2.69-20.3" transform="translate(-22.59 -81.29)"/><path class="cls-20" d="M204.53,304.18l.14,1.3c.38,3.55,1.47,13.8,2.27,22.84a2.31,2.31,0,0,0,1.66.5,2.63,2.63,0,0,0,1.26-.5c-.3-7.07,1-15-.65-24.1" transform="translate(-22.59 -81.29)"/><path class="cls-20" d="M234.26,333.47l-.33-.6a11.86,11.86,0,0,1-1.41-3.46" transform="translate(-22.59 -81.29)"/><path class="cls-20" d="M234.27,333.48h0a4.37,4.37,0,0,0-.52-.68,4.79,4.79,0,0,0-5.85-.56,3.76,3.76,0,0,0-1.15,1.13,3.39,3.39,0,0,0-.46,1,1.63,1.63,0,0,0-.06.54,1.5,1.5,0,0,0,1,1.45,13.51,13.51,0,0,0,6,.18,1.87,1.87,0,0,0,1-3.07" transform="translate(-22.59 -81.29)"/><path class="cls-20" d="M227.88,332.21a6,6,0,0,0,1.72-2.8" transform="translate(-22.59 -81.29)"/><path class="cls-20" d="M225.69,304.9l.17,1.12c.53,3.38,2.16,13.89,3.74,23.39a2.32,2.32,0,0,0,2.92,0c-.26-4.28-.61-14.19-2.19-24.53" transform="translate(-22.59 -81.29)"/><path class="cls-20" d="M180.82,142.84a22.73,22.73,0,0,1,5.65-.54,14.65,14.65,0,0,1,4.52.86c1.12.41,2.34.88,3.64,1.38,7.73,3,18.12,7,24,5.91a27.31,27.31,0,0,0,3.52-.9,25.8,25.8,0,0,0,3.37-1.37,19.21,19.21,0,0,0,3.8-2.36" transform="translate(-22.59 -81.29)"/><path class="cls-20" d="M173.55,145.32a34,34,0,0,1,7.26-2.48" transform="translate(-22.59 -81.29)"/><path class="cls-20" d="M173.35,145.43l.05,0h0l.08,0" transform="translate(-22.59 -81.29)"/><line class="cls-20" x1="150.92" y1="64.06" x2="150.83" y2="64.1"/><path class="cls-20" d="M173.5,145.35l.05,0" transform="translate(-22.59 -81.29)"/><path class="cls-20" d="M189.94,137.61a14.46,14.46,0,0,0-3.89,1.3l-12.5,6.41" transform="translate(-22.59 -81.29)"/><path class="cls-20" d="M219.78,141.77c-15.3-5.71-24.95-5.22-29.84-4.16" transform="translate(-22.59 -81.29)"/><path class="cls-20" d="M219.91,141.82l-.08,0-.05,0" transform="translate(-22.59 -81.29)"/><path class="cls-20" d="M220.07,141.88l-.08,0" transform="translate(-22.59 -81.29)"/><path class="cls-20" d="M232.67,125.22c3.7,3.18,6.34,6.48,7.15,8.46,1.34,3.31-.59,9.62-1.93,13.24-.62,1.65-1.1,2.75-1.1,2.75q-3.93-2.14-7.51-3.85c-3.26-1.55-6.31-2.84-9.17-3.92" transform="translate(-22.59 -81.29)"/><path class="cls-20" d="M186.05,138.91s.92-2.36,2.17-5.34c1.93-4.63,4.63-10.75,5.85-11.85,2-1.81,6.15-5.39,18.58-5.39,7.31,0,14.74,4.33,20,8.88" transform="translate(-22.59 -81.29)"/><path class="cls-20" d="M173.35,145.43a5.58,5.58,0,0,0,5.58,1.2c2.07-.65,5.14-1.52,7.52-2.26" transform="translate(-22.59 -81.29)"/><path class="cls-44" d="M188.32,133.62a30.61,30.61,0,0,1,4.28-.64c6.62-.61,20.22-.4,36,8.11a83.86,83.86,0,0,1,9.25,5.83" transform="translate(-22.59 -81.29)"/><path class="cls-20" d="M193.8,179.11a15.11,15.11,0,0,0,15.8-4,1.77,1.77,0,0,1,1.84,1.26" transform="translate(-22.59 -81.29)"/><path class="cls-20" d="M197.54,181.72s4,.6,6.62-1.19" transform="translate(-22.59 -81.29)"/><path class="cls-43" d="M225.5,148.23s6.53,3.38,5.71,10.9h0" transform="translate(-22.59 -81.29)"/><path class="cls-20" d="M236.79,149.67a33.45,33.45,0,0,0-1.86,6.39h0" transform="translate(-22.59 -81.29)"/><path class="cls-20" d="M212.77,154.43a4.66,4.66,0,0,1,.29,1.63,4.82,4.82,0,1,1-9.63,0,4.9,4.9,0,0,1,.28-1.63,4.85,4.85,0,0,1,5.75-3,4.87,4.87,0,0,1,3.18,2.69c.05.11.09.23.13.34" transform="translate(-22.59 -81.29)"/><path class="cls-45" d="M193.45,158.85h0a4.47,4.47,0,0,1-1.77-.17,4.6,4.6,0,0,1-3.12-5.72A4.11,4.11,0,0,1,193,150a3.41,3.41,0,0,1,1.55.76l.09.08" transform="translate(-22.59 -81.29)"/><path class="cls-46" d="M209.84,157.35a1.34,1.34,0,0,1-1.4,1.25,1.32,1.32,0,0,1-1.25-1.39,1.31,1.31,0,0,1,1.39-1.25A1.33,1.33,0,0,1,209.84,157.35Z" transform="translate(-22.59 -81.29)"/><path class="cls-46" d="M193.86,156.53a1.32,1.32,0,1,1,.36-2.35" transform="translate(-22.59 -81.29)"/><path class="cls-20" d="M226.07,242.35c.92-.23,1.81-.47,2.66-.7a122.14,122.14,0,0,0,12.12-4,1.46,1.46,0,0,0,.93-1.36V229.1h0" transform="translate(-22.59 -81.29)"/><path class="cls-20" d="M206.4,245a4.27,4.27,0,0,0,3.21,1.68c2.22.26,2.9-1.43,4.1-1.68" transform="translate(-22.59 -81.29)"/><path class="cls-20" d="M235.28,230.36h0l.18,1.17.34,2.29a1.45,1.45,0,0,1-.91,1.53c-1.2.48-3.36,1.44-6,2.57-.87.37-1.8.75-2.77,1.14" transform="translate(-22.59 -81.29)"/><line class="cls-20" x1="172.65" y1="143.93" x2="172.17" y2="148.16"/><path class="cls-20" d="M187,245s3.06,3.82,6.11,0" transform="translate(-22.59 -81.29)"/><polyline class="cls-20" points="172.17 148.18 176.2 148.18 196.3 148.18 202.01 155.31 203.48 157.14"/><polygon class="cls-20" points="203.48 161.05 203.48 163.67 200.84 163.67 191.13 163.67 183.82 163.67 174.73 163.67 170.49 163.67 164.37 163.67 136.24 163.67 136.24 157.23 136.24 157.14 175.33 157.14 201.71 157.14 203.48 157.14 203.48 157.31 203.48 157.78 203.48 159.22 203.48 161.05"/><path class="cls-47" d="M188.51,153a8,8,0,0,1,5.4-.87,3.68,3.68,0,0,1,.54.16h0" transform="translate(-22.59 -81.29)"/><path class="cls-47" d="M203.71,154.43a8,8,0,0,1,4.22-1.19,9.45,9.45,0,0,1,2.53.3,11.59,11.59,0,0,1,1.3.43,9.93,9.93,0,0,1,1,.46h0" transform="translate(-22.59 -81.29)"/><path class="cls-48" d="M204.84,232.49a131.78,131.78,0,0,0-15.25-.93,6.84,6.84,0,0,0,2.76,5S202.06,234.1,204.84,232.49Z" transform="translate(-22.59 -81.29)"/><ellipse class="cls-5" cx="191.3" cy="233.09" rx="0.68" ry="0.51" transform="translate(-47.32 -58.57) rotate(-6.39)"/><ellipse class="cls-5" cx="199.71" cy="233.1" rx="0.87" ry="0.67" transform="translate(-47.27 -57.64) rotate(-6.39)"/><path class="cls-5" d="M196.4,235.49a.82.82,0,0,0,0-.38,1.06,1.06,0,0,0-1.22-.83,1,1,0,0,0-1,1.08.88.88,0,0,0,.34.59Z" transform="translate(-22.59 -81.29)"/><polyline class="cls-49" points="136.23 156.95 153.86 147.9 196.3 147.9 203.48 156.93"/><rect class="cls-31" x="100.44" y="111.4" width="18.18" height="7.67" rx="3.84"/><path class="cls-13" d="M129.05,196.49a1.62,1.62,0,1,1-1.6-1.93A1.72,1.72,0,0,1,129.05,196.49Zm-2.8,0c0,.8.41,1.59,1.21,1.59s1.21-.77,1.21-1.55-.41-1.58-1.22-1.58S126.25,195.69,126.25,196.47Z" transform="translate(-22.59 -81.29)"/><path class="cls-13" d="M129.58,194.88a.18.18,0,0,1,.21-.2h1.05a1.12,1.12,0,1,1,0,2.24h-.93v1.26c0,.12-.06.18-.17.18s-.19-.06-.19-.18Zm.36.16v1.51h.91a.76.76,0,0,0,.83-.75c0-.47-.38-.76-.91-.76Z" transform="translate(-22.59 -81.29)"/><path class="cls-13" d="M132.59,194.91c0-.15.07-.22.21-.22h1.51a.18.18,0,0,1,0,.36H133v1.22h1.11a.17.17,0,0,1,.18.19c0,.11-.06.17-.18.17H133V198h1.39q.21,0,.21.18t-.21.18H132.8c-.18,0-.21,0-.21-.22Z" transform="translate(-22.59 -81.29)"/><path class="cls-13" d="M135,194.89q0-.21.18-.21a.33.33,0,0,1,.26.18l1.93,2.85v-2.84a.17.17,0,0,1,.18-.19.17.17,0,0,1,.19.19v3.27c0,.15-.06.22-.18.22a.3.3,0,0,1-.25-.15l-1.95-2.84v2.8c0,.13-.06.19-.18.19s-.18-.06-.18-.19Z" transform="translate(-22.59 -81.29)"/></g></svg>